<svg id="Camada_1" data-name="Camada 1" xmlns="http://www.w3.org/2000/svg" viewBox="0 0 1200 1200"><defs><style>.cls-1{fill:#604e38;}.cls-2{fill:#bba893;}.cls-3{fill:#811900;}.cls-4,.cls-5,.cls-6{fill:none;stroke-miterlimit:10;}.cls-4{stroke:#000;}.cls-4,.cls-6{stroke-width:3px;}.cls-5{stroke:#811900;stroke-width:4px;}.cls-6{stroke:#ce3400;}</style></defs><path class="cls-1" d="M505,507.66l9-8.27c2.36-.21,4.42-.73,4.82-3.63a3.16,3.16,0,0,1,2.33-2.26c7.08-2.43,8.45-8.86,10.58-14.78a5.13,5.13,0,0,0,.53-.51c2.26,2.74,5.95,2.43,8.86,3.68,4.91,2.1,3.29-5.12,6.63-6.41.87-.34,1.54-3.33.6-3.73-6-2.51-.14-5.49-.28-8.14-.06-1.08,3.76-3.26,4.22-1.14.91,4.33,3,1.55,4.47,1.89-.42-1.42-2.54-.87-2.3-2.69.09-.75.67-1.72,1.2-1.5,4.44,1.85,2.7-2,3.66-3.47-3,1.93-6.7-1.54-9.32,1.55-.58.68-1.71,1.28-2.58.26s-.47-2,0-3.13c.8-1.72,2.69-1.82,3.88-2.05,3.72-.74,5.07-3.63,6.79-6.26.37-.55.63-1.37-.26-1.75-3.49-1.48-1.55-4.36-.43-5.2,2.35-1.76,2.24-4,3.13-6.21a81.87,81.87,0,0,1,3.77-7.7,25.47,25.47,0,0,0,3.25-15l2.25-7.33c1.5-4.29-.34-8.52-.28-12.6.08-6.35-3.75-9.37-7.15-13.17,0-.76-.11-1.52-.16-2.28-.33-3.82.55-8-4.7-9.75-2.2-.73-3.44-3.15-3.71-5.68,0-.53.05-1.08,0-1.62,0-.07-.36-.11-.55-.17-4.63-1.27-6.52-5.16-8.77-8.86-2-3.23-.37-4.22,2.22-5.81,3.73-2.28,7.37.17,11-.53.9-.17,2.32.46,2.09-.91-.48-2.9,1.68-3.52,3.34-4.67,1.27-.88,2.23-1.94,1-3.47-2.9-3.73-6.91-4.77-11.38-4.24a2.86,2.86,0,0,0-2.76,3.15c.07,1.23.63,2.66-1.16,3.08-1.58.36-3.51,0-4.28-1.16-2.63-4-7-6.39-9.51-10.42-1.82-2.87-3.52-5.66-2.48-9.33.59-2.09-.62-3.71-2.15-5l-.57-1.76a1.77,1.77,0,0,0-.82-2.22c-1.26-1.54-1.46-3.46-1.88-5.3,4.22,1.67,6.2,5.61,8.68,8.93s5.52,4.93,9.69,3.27c1.49-.59,2.94-1.41,2.81-3.2s-2.25-1.76-3-1.59c-5.26,1.2-6.13-2.91-8-6a2.57,2.57,0,0,1,0-3.08c.81-1.22,2-.72,3.06-.53,1.87.33,3.43,2,5.63,1,.83-.38,1.54.37,2,1.18,2.32,4.31,3.3,1.89,4.28-.85,1.4-3.89,8-8.69,11.51-7.75,4.71,1.25,8.8-1.12,13.22-1.48,5-.41,9.2-3,12.37-7.07,1.7-.18,3.41-.95,5.11,0-1.21,2.18-3,4.29.84,6a3.67,3.67,0,0,1,1.37,4c-.33.78-1.31,1.63-2,1.19-3.1-2-4.78,1.22-7,2-3.29,1.14-3.77,7.71-.79,9.66,2,1.33.37,1.65-.12,2.36-1.62,2.35-1,5.19-.24,7.22s3,.68,4.51-.52a.86.86,0,0,1,1.32.54,1.66,1.66,0,0,1-.59,1.44c-2.91,1.23-4.7,4.52-8.29,4.49-2,0-2.75,1.29-2.67,3,.1,2,1.51,4.28,3.2,3.62,3.17-1.23,3.25,1.23,3.95,2.59a4,4,0,0,0,3.76,2.48c4.19.44,7.25-1.39,10.28-3.73.53-.42,1.2-1.13,1.68-1,1.16.22.72,1.29.62,2.07-.31,2.51.86,2.18,2.4,1.31a2.87,2.87,0,0,0,1.78-3c-.07-1.28.83-2.73,2.27-2.23s1.24,2.18.53,3.27c-2.49,3.86-1.09,9.95-7.41,11.74,2.52.33,5.18-1.08,5.48,2.52.22,2.69.27,5.36,3.17,7,.83.47.87,2.2.15,3.14-1.41,1.81-1.24,3.91-1.3,6.59-1.7-1.73-3.08-2.47-3.52.29a14.36,14.36,0,0,1-2.91,6,9.76,9.76,0,0,0-1.86,7.62c3.32-3.77,6.26-7.1,9.19-10.45.47-.54,1-1.13,1.75-.87,1.15.42.61,1.4.42,2.14a6,6,0,0,1-.88,1.89c-2,2.74.56,4.59,1.76,6.14,1.06,1.36,2.68-.46,3.85-1.44,4.6-3.84,9.25-7.71,15.45-8.47,2.33-.29,5.91-2.64,6.44-1.32,1.34,3.37,3.7,2,5.53,2.14,4,.27,6.7,4.24,11,3.66.69-.09.44,1.09.56,1.74.71,3.76-1.43,6.93-2,10.41l0,0a2.37,2.37,0,0,0-3,1.84c-2.52,1.26-4,3.58-5.63,5.69a8,8,0,0,1-2.89,0c-4.64-1.79-8.38-.93-12.28,2.36-2.54,2.15-3.36,5.09-5.31,7.42-3.42,4.07-1.73,8.7-1.21,13.18,0,.38.1,1,.71.77,5.18-1.62,3.33,2.05,3.49,4.45s-.41,4.62.84,7c-3.61-.8-3.64-.8-3.31,2.5a3.42,3.42,0,0,1-.54,2.8c-2.37,2.63-.58,5.2.75,7,3.17,4.32,3.36,4.2-1.68,6.73a4.82,4.82,0,0,1-4.78-.17c-2.08-1.08-4,.57-6,.69a3,3,0,0,0-.42,1.81c2.15,1.33,1.47,3.76,2.31,5.57,1.58,3.36.75,5-2.9,5.7-1.7.33-3.55.5-5-.31-3.28-1.9-6.37-1.3-9.59-.11-2.13.79-4.63.82-5.94,3.21-.2.37-1.4.63-1.41.62-2.54-5.91-3.34,2.59-5.35.65-.34.74-1,1.51-.94,2.22.13,1.6,1.14.08,1.79.28,2.66.83,5,3.34,8.21,1.66.21-.11,1,.48,1.23.9,1.31,2.44,3.07,4.58,4,7.32.67,2,.57,4.37,2.38,6s3.19,4,1.49,5.85-4.59,3.2-7.48.92c-2-1.55-4.26-2.79-5.61-5-1.75-2.81-4.93-2.51-7.42-3.4-1.9-.67-2.41,2.13-3.45,3.54-2.32,3.15-8.17,2.77-10.91.08s-4-7.88-9.63-6.46c-.54.13-1.41-.79-2-1.33-1.38-1.19-7.19-.82-7.07.45.36,3.88-4,5.47-3.87,9.05,0,.35-1.2.76-.39,1.51.47.45,1,.19,1.55,0,1.15-.45,3-2,3.11-1.58.61,3.95,4,1.48,5.66,2.71,1,.76,2.93.82,2.4,2.88l-.28.21.25-.26c.78-2.52,6.42-1.35,4.55-6.12-.29-.74,1.8-.55,2.44-.16,2.24,1.39,4.34,3,6.46,4.58,1.46,1.08,2.45,3.11,4.91,1.65,1-.6,1.19.58,1.34,1.45.53,2.89,2,3.46,4.38,1.68s4.23-1.31,4.5,1.64c.38,4,2.92,6.22,5.76,8.32,1.54,1.14,3.32,2.49,2.16,4.36s-3.12,1.64-5.25.75c-3.92-1.62-6.76-5.43-11.29-5.7-3.95-.23-8.14-3.51-12.24,1.5,5-4.52,3.8,3,7,2.64,4.64-.48,3.55,3.94,4.66,6.44l0-.06c-1,2.18.47,4.08.67,6.12.3,3.07-1,4.09-3.86,3.08-5.16-1.8-9.26-5.43-13.83-8.22-2.38-1.44-4.33-2.67-6.75-1.26-2.81,1.64.45,3.62-.32,5.58,5.94-1.56,7.67-.65,9.42,4.51.39,1.13.51,2.24,1.63,3.24,2.56,2.29,1.16,5.54-.29,7.21-1.84,2.11-3.13-.82-4.4-2.09a4.77,4.77,0,0,0-.64-.55c-2.39-1.69-5.22-2.69-7.86-1.67s-.77,3.7-.77,5.64a26.6,26.6,0,0,0,.37,3.76c.25,1.76.24,2.79-2.13,1.84-3-1.18-6-2-8.85-3.67-1.41-.86-3.93-2.3-5.06.24-1,2.21.81,3.45,2.89,4.25,3.39,1.29,4.62,4.33,5.29,7.55.35,1.66-.64,2.85-2.27,3.52s-2.11-.32-2.89-1.45c-1.08-1.58-2.61-2.83-3.81-4.33-.8-1-1.61-1.1-2.5-.37a1.49,1.49,0,0,0-.18,2.24c.83,1.07,1.33,2.55,3.05,2.56l0-.06c-.35,1.41,0,3.89-1.85,3.71-4.48-.42-8.16.79-12.13,2.77-2.49,1.24-2.31,1.78-1.11,3.39s3.1,2.8,3.64,5.28c.37,1.69,2,3.25.62,5-1.59,2-3.75.76-5.41.06-3.2-1.35-6.18-3.26-9.18.37-.62.75-2.13-.5-3.34.95,1.1-.2,2.5-.55,2.47.26-.11,2.84,1.48,4.25,3.62,5.6,1.18.74.6,2.06,0,3-1,1.54-2.93,1.17-4.52,1.73.59.7,1,1.77,1.67,1.89,3.3.62,4,3.33,3.42,5.57-.72,2.57-3.55,1.29-5.56,1.31-1.48,0-3.51-1.13-4.35.42-2.4,4.43-6.69,2.56-10,3-2.7.33-4-3.38-6-5.19-1.41-1.29,2-1.79,1.91-4-2.6,1.62-4.3.41-5-1.82-.52-1.69-.53-3.16-2.91-2.1a2,2,0,0,1-1.78-.75c-.4-.88.43-1,1.17-1.18s.54-.75.29-1.23c-2.06-4.05,1.72-3.79,3.28-3.57a99.57,99.57,0,0,1,12.14,3c.87.24,1.62,1.42,2.6.5.66-.61.44-1.55.3-2.4-.18-1.09-.86-2.18-.26-3.28.94-1.74-.22-2.05-1.43-1.94-2.61.23-5.26-.24-7.75.05s-3.55-1.09-4.72-2.57c-.76-1-.84-2.46,0-3.11,1.73-1.27,4.66-2.06,5.89-.94,3.72,3.38,4.57-1.09,6.91-1.82-3.29-.27-5.29-2.77-8-3.78-1-.39-2.95.24-2.87-1.6.06-1.3,1.46-1.8,2.69-2.33a6.92,6.92,0,0,1,5.26-.46c1.85.62,3.9,1.42,5.76.61s2.89-.07,3.67,1.44c1.59,3.09,3.53.76,4.76,0,1.74-1.14,1.18-2.88-.34-4.22-2.93-2.59-6.2-4.46-10.22-4.31-2.11.09-2.2-.77-2-2.52.39-3.48,2.95-5,6.2-6.51-2-.69-3.41-1.11-4.77-1.62-2.5-.94-2.77-3.77-3.49-5.57s2.6.35,3.58-1c.11-.17.06-.45.1-.78-2.17.36-5.19-1.38-6.14,1.81-1,3.44-3.21,6.15-4.78,9.23-.52,0-1.11-.08-1.3.61a.38.38,0,0,0,.2.31c.71.09.8-.54,1.06-1,3.69.54,1.31,2.25.28,2.75a3.66,3.66,0,0,0-2.18,3.68c3.17-.84,1.39,1.21.76,1.6a9.43,9.43,0,0,1-3.83,1.14c-3.32.36-8.33-4.63-9.29,3,0,.14-.47.24-.73.34l-9.28,3.35c-1.11-1.47.07-5.46-3.09-3.4-1.66,1.09-6.95,1.34-4.21,6.1.12.21-.23.77-.46,1.1-1.82,2.57-7.4,3.93-10.44,2.43-.65-.33-1.15-.72-1.88-.48-3.26,1.07-6.5-1.11-9.81-.06-.62.2-2.43.07-2.12-1.28.62-2.64-2.3-1.34-2.69-2.65.36-.95,3.1.92,1.94-1.83-.87-2.06.49-2.43,2.19-2.2l3.9.53c.55,1.19-1.84,1.19-.81,2.46,4.8.17,7.61-5.71,12.87-4.18a3.94,3.94,0,0,0,2.45-.11c2.5-1,6.2-.51,6.42-4.68l.72-.17c2.95,2.83,3.91.22,5.05-1.86l.69-.14c1.25.49,1.81-.12,2-1.28l7-4.61c1.93,0,3.47-.54,3.93-2.68h0c7.1.64,9.29-6.48,14.25-9.3,1.48-.85,1.18-4.84,1.69-7.38l3.5-2.72c3.24,1,3.47-1.41,3.95-3.53l1.63-2.06c.75.32.64,1.76,1.72,1.5.76-.18.79-1.09.77-1.75A28.66,28.66,0,0,0,505,507.66ZM610.52,386.42l.21,1c.06-.1.18-.23.15-.29a7.58,7.58,0,0,0-.4-.68c0-3.4.35-6.61,3.25-9a1.39,1.39,0,0,0,.16-2.2c-.55-.48-1.25-.26-1.92.17a23.19,23.19,0,0,0-9.23,10.32c-.31.71-1.29,1.43-.37,2.18s1.46,0,2-.74,1.09-1.95,2.28-1.17c.86.57.17,1.53,0,2.32s-.31,1.66-.38,2.49c-.12,1.6,0,3.12,1.64,4,.31.18.94.32,1.09.16,1.28-1.34-.31-2.64-.15-3.83C609.15,389.58,606.56,386.78,610.52,386.42ZM528.14,502.26c1.85-2.26,2.35-4.93,4.42-6.41,1.06-.76,2.07-3,3.05.27.43,1.42,2,.5,2.73-.25.94-1,0-2.05-.86-2.26-2.76-.66-5.61-1.5-8.26.38-.66.47-1.62,1.09-.91,2C530,498,528,499.79,528.14,502.26Zm74.53-109.72c-1.51-.14-2.35.35-2.1,1.85a18.84,18.84,0,0,0,1.1,3.89c.64,1.63-.11,4.79,2.32,4.29,1.88-.39.69-3.46.42-5.28S604.37,393.62,602.67,392.54Zm-149,164.31a2.91,2.91,0,0,0-2.46-2.32c-2.22,0-4.81.3-5.67,2.61-.66,1.76,1.67,2.39,2.84,2.7C450.72,560.46,452.1,558.52,453.67,556.85ZM594.31,403.48c.31.68-1.27,2.32.82,2.74a2.72,2.72,0,0,0,3.35-1.84c.29-1.41-.53-3.32-1.7-3.78C595.07,399.93,594.56,401.65,594.31,403.48ZM529.82,491c1.92-1.78,4.29-1.59,4.23-3.93a1.83,1.83,0,0,0-2.07-1.58C529.73,486.11,530.13,488.15,529.82,491Zm87.26-92.11c-.92,1.37-1.74,2.64-2.59,3.89-.4.58-.81,1.17-.48,1.91s.93.6,1.45.51a1.58,1.58,0,0,0,1.48-1.7C616.94,402,617,400.5,617.08,398.88Zm-79.85,89.69c2.8-.37,4.79.53,5.74-1.72a1.34,1.34,0,0,0-.25-1C540.85,485.75,539.35,486.53,537.23,488.57Zm-39.88,35.82c-.05-.27-.06-.93-.19-.95-.64-.12-1,.38-1.1.92-.07.32,0,.95.23,1C497,525.67,497.12,525,497.35,524.39Zm-19.3,18.82c-.28-.76-.31-1.23-.56-1.47-.58-.53-.64.17-.71.46-.11.45-.52,1.06.19,1.31C477.26,543.61,477.7,543.32,478.05,543.21Zm-10.56,8.87-.11-.86a4.27,4.27,0,0,0-.95.24,1,1,0,0,0,.09.65A4,4,0,0,0,467.49,552.08ZM455.2,553l.13-.34h-.52c0,.12,0,.26.08.33S455.09,553,455.2,553Z"/><path class="cls-2" d="M458.46,546.54c-.22,4.17-3.92,3.64-6.42,4.68a3.94,3.94,0,0,1-2.45.11c-5.26-1.53-8.07,4.35-12.87,4.18-1-1.27,1.36-1.27.81-2.46l-3.9-.53c-1.7-.23-3.06.14-2.19,2.2,1.16,2.75-1.58.88-1.94,1.83.39,1.31,3.31,0,2.69,2.65-.31,1.35,1.5,1.48,2.12,1.28,3.31-1.05,6.55,1.13,9.81.06.73-.24,1.23.15,1.88.48,3,1.5,8.62.14,10.44-2.43.23-.33.58-.89.46-1.1-2.74-4.76,2.55-5,4.21-6.1,3.16-2.06,2,1.93,3.09,3.4l9.28-3.35c.26-.1.71-.2.73-.34,1-7.67,6-2.68,9.29-3a9.43,9.43,0,0,0,3.83-1.14c.63-.39,2.41-2.44-.76-1.6a3.66,3.66,0,0,1,2.18-3.68c1-.5,3.41-2.21-.28-2.75l0,.05c1.57-3.08,3.75-5.79,4.78-9.23.95-3.19,4-1.45,6.14-1.81,0,.33,0,.61-.1.78-1,1.39-4.25-.64-3.58,1s1,4.63,3.49,5.57c1.36.51,2.75.93,4.77,1.62-3.25,1.55-5.81,3-6.2,6.51-.19,1.75-.1,2.61,2,2.52,4-.15,7.29,1.72,10.22,4.31,1.52,1.34,2.08,3.08.34,4.22-1.23.81-3.17,3.14-4.76,0-.78-1.51-1.7-2.3-3.67-1.44s-3.91,0-5.76-.61a6.92,6.92,0,0,0-5.26.46c-1.23.53-2.63,1-2.69,2.33-.08,1.84,1.83,1.21,2.87,1.6,2.7,1,4.7,3.51,8,3.78-2.34.73-3.19,5.2-6.91,1.82-1.23-1.12-4.16-.33-5.89.94-.88.65-.8,2.15,0,3.11,1.17,1.48,2.12,2.87,4.72,2.57s5.14.18,7.75-.05c1.21-.11,2.37.2,1.43,1.94-.6,1.1.08,2.19.26,3.28.14.85.36,1.79-.3,2.4-1,.92-1.73-.26-2.6-.5a99.57,99.57,0,0,0-12.14-3c-1.56-.22-5.34-.48-3.28,3.57.25.48.59,1.07-.29,1.23s-1.57.3-1.17,1.18a2,2,0,0,0,1.78.75c2.38-1.06,2.39.41,2.91,2.1.7,2.23,2.4,3.44,5,1.82.08,2.25-3.32,2.75-1.91,4,2,1.81,3.26,5.52,6,5.19,3.32-.4,7.61,1.47,10-3,.84-1.55,2.87-.4,4.35-.42,2,0,4.84,1.26,5.56-1.31.62-2.24-.12-5-3.42-5.57-.63-.12-1.08-1.19-1.67-1.89,1.59-.56,3.48-.19,4.52-1.73.63-.95,1.21-2.27,0-3-2.14-1.35-3.73-2.76-3.62-5.6,0-.81-1.37-.46-2.47-.26,1.21-1.45,2.72-.2,3.34-.95,3-3.63,6-1.72,9.18-.37,1.66.7,3.82,1.95,5.41-.06,1.36-1.71-.25-3.27-.62-5-.54-2.48-2.37-3.58-3.64-5.28s-1.38-2.15,1.11-3.39c4-2,7.65-3.19,12.13-2.77,1.86.18,1.5-2.3,1.85-3.71l.46-.24c-.08,0-.19,0-.24,0a1.19,1.19,0,0,0-.18.29c-1.72,0-2.22-1.49-3.05-2.56a1.49,1.49,0,0,1,.18-2.24c.89-.73,1.7-.64,2.5.37,1.2,1.5,2.73,2.75,3.81,4.33.78,1.13,1.24,2.13,2.89,1.45s2.62-1.86,2.27-3.52c-.67-3.22-1.9-6.26-5.29-7.55-2.08-.8-3.88-2-2.89-4.25,1.13-2.54,3.65-1.1,5.06-.24,2.81,1.7,5.89,2.49,8.85,3.67,2.37,1,2.38-.08,2.13-1.84a26.6,26.6,0,0,1-.37-3.76c0-1.94-2-4.58.77-5.64s5.47,0,7.86,1.67a4.77,4.77,0,0,1,.64.55c1.27,1.27,2.56,4.2,4.4,2.09,1.45-1.67,2.85-4.92.29-7.21-1.12-1-1.24-2.11-1.63-3.24-1.75-5.16-3.48-6.07-9.42-4.51.77-2-2.49-3.94.32-5.58,2.42-1.41,4.37-.18,6.75,1.26,4.57,2.79,8.67,6.42,13.83,8.22,2.91,1,4.16,0,3.86-3.08-.2-2-1.69-3.94-.67-6.12l.28-.25-.25.31c-1.11-2.5,0-6.92-4.66-6.44-3.23.33-2-7.16-7-2.64,4.1-5,8.29-1.73,12.24-1.5,4.53.27,7.37,4.08,11.29,5.7,2.13.89,4.17,1,5.25-.75s-.62-3.22-2.16-4.36c-2.84-2.1-5.38-4.32-5.76-8.32-.27-2.95-2.23-3.31-4.5-1.64s-3.85,1.21-4.38-1.68c-.15-.87-.32-2.05-1.34-1.45-2.46,1.46-3.45-.57-4.91-1.65-2.12-1.57-4.22-3.19-6.46-4.58-.64-.39-2.73-.58-2.44.16,1.87,4.77-3.77,3.6-4.55,6.12l0,.05c.53-2.06-1.39-2.12-2.4-2.88-1.66-1.23-5,1.24-5.66-2.71-.07-.44-2,1.13-3.11,1.58-.54.21-1.08.47-1.55,0-.81-.75.4-1.16.39-1.51-.08-3.58,4.23-5.17,3.87-9.05-.12-1.27,5.69-1.64,7.07-.45.62.54,1.49,1.46,2,1.33,5.64-1.42,6.9,3.77,9.63,6.46s8.59,3.07,10.91-.08c1-1.41,1.55-4.21,3.45-3.54,2.49.89,5.67.59,7.42,3.4,1.35,2.16,3.64,3.4,5.61,5,2.89,2.28,5.68,1,7.48-.92s.23-4.27-1.49-5.85-1.71-4-2.38-6c-.91-2.74-2.67-4.88-4-7.32-.23-.42-1-1-1.23-.9-3.2,1.68-5.55-.83-8.21-1.66-.65-.2-1.66,1.32-1.79-.28-.06-.71.6-1.48.94-2.22,2,1.94,2.81-6.56,5.35-.65,0,0,1.21-.25,1.41-.62,1.31-2.39,3.81-2.42,5.94-3.21,3.22-1.19,6.31-1.79,9.59.11,1.41.81,3.26.64,5,.31,3.65-.7,4.48-2.34,2.9-5.7-.84-1.81-.16-4.24-2.31-5.57a3,3,0,0,1,.42-1.81c2-.12,3.89-1.77,6-.69a4.82,4.82,0,0,0,4.78.17c5-2.53,4.85-2.41,1.68-6.73-1.33-1.81-3.12-4.38-.75-7a3.42,3.42,0,0,0,.54-2.8c-.33-3.3-.3-3.3,3.31-2.5-1.25-2.34-.69-4.67-.84-7s1.69-6.07-3.49-4.45c-.61.19-.67-.39-.71-.77-.52-4.48-2.21-9.11,1.21-13.18,2-2.33,2.77-5.27,5.31-7.42,3.9-3.29,7.64-4.15,12.28-2.36a8,8,0,0,0,2.89,0c-.13,5.44-1,10.84-.83,16.31a18,18,0,0,1-1.48,7.82c-2.35,5.1-2.58,10.6-3.52,15.93a35.37,35.37,0,0,1-1.42,5.58,149.83,149.83,0,0,1-5.72,15.43c-3.16,6.7-2.75,14.36-4.68,21.43-.5,1.82.47,4.79-3.13,4.82-.32,0-.7,1.7-.93,2.64-2.3,9.44-5.18,18.59-11.81,26.09-.68.78-.76,2.07-1.13,3.12-1.09,3.17-2.14,6.3-5.73,7.7-4.2,1.63-4.75,6.36-7.5,9.31a50.7,50.7,0,0,1-6.64,6.31c-2,1.48-4.2,2.51-5.28,5.17-1,2.41-3.93,2-6,2.23-2.88.34-4.56,1.51-4.46,4.4.16,5-3.27,8.33-5.67,12.13-.07.11-.24.17-.3.29-2.85,6.08-5.72,11.77-12.26,15.34-2.72,1.48-4.2,6.3-1.59,10.58,1.47,2.39-.59,4.62-2.6,6-3,2.06-6.33,3.2-5.12,8.41.71,3.11-3.72,4.12-6.06,5.58-3.52,2.18-7.22,3.45-9.07,8-1.36,3.36-6.35,3-9.4,4.94-4.52,2.91-10.16,3.41-14.51,6.78-.89.68-2.36.69-3.59.83-4.09.46-6,2.67-4.7,6.5,2.14,6.38,4.72,12.63,9,18a6.41,6.41,0,0,0,5.87,2.69c3.07-.38,4.36,1.09,5.66,3.75a19.23,19.23,0,0,1,1.9,8.51c0,3.12-1,6-5.23,5.28.13-1.64,0-3-2.06-3.49-1.56-.38-3.29-1.05-3.3-3.17a2.08,2.08,0,0,1,1.17-2.08c1.85-.68,2.67,1.1,3.93,1.82.17.1.49-.06.75-.11-1.62-5.78-7.11-8.33-12.69-6.8-2.34.65-6,2.2-7.82-1-2.15-3.72-4-3.26-6.28-.43-1.76-1.63-3.8-3.07-3.73-5.86,1.84-1,6.74-11.61,6.14-13.36-.05-.13,0-.33-.09-.4-3-2.59-1.79-5.61-.78-8.51-1.58-.32-3.08-1-4.51-.86-3.77.35-7.65.28-11.22,1.92-2.93-3-5.35-2.74-7.72,1.17-3.36,5.55-3.13,11.83-2.13,17.85.7,4.15,1.14,8.94,6.14,11.1a3.24,3.24,0,0,1,1.36,3.73c-1.14,4.18-3.84,7.63-5.52,11.56-.06.14-.77,0-1.17,0-1.88-2,1.68-3.89.48-5.2-2.2-2.43-.54-3.6.81-5.2,2.68-3.18,2.27-4.81-1.45-6.84-1-.54-2.76-.25-2.82-2-.21-5.85-3.45-11.24-2.41-17.39.32-1.88,1.71-3.11,1.74-5,.08-4.74,2.7-7.88,6.7-10.14,3.36-1.89,7.3-2,10.69-3.72,1.12-.57,3.18-1,2.38-2.75-.73-1.58-2.45-1.45-4.07-.64-.8.4-1.72,2.32-2.68.62-1.48-2.62-3.48-1.32-5.07-.79-3.53,1.17-6,.5-8-2.8-2.44-4-6.8-4.61-9.24-1.71-.52.62-1.36,1.3-.52,2.13a1.33,1.33,0,0,0,1.91-.17c2-2.29,2.89-.07,3.7,1.1a6.14,6.14,0,0,1,.57,5.59c-.71,1.87-2.29.57-3.61.15a.84.84,0,0,0-.89,1.34c.82,1.18.11,1.68-.61,2.41-2.92,3-5.74,6-8.73,8.9-.76.73-1.56,1.16-1.1,2.35,1.34,3.51.17,7.18.62,10.77.15,1.21.12,2.91-1.56,3.59-.94-7.12-1.43-14.29.33-21.29.95-3.77.83-7.64,2-11.42a10.2,10.2,0,0,1,5.52-6.78c1.87-.92,2.68-3.31,5-3.48.53.41.93.85,1.81.64a18.18,18.18,0,0,1,13.26,1.6c4.35,2.5,9,.38,13.27,2.06.89.35,2.33-.73,3.52-1.14s2.28-1.26,3.12-1c1.95.66,3.44,1.33,3.83-1.58s-2.17-3.09-3.55-2.95c-3.3.35-4.56-1.54-6.06-3.84-3.19-4.91-7.58-8-13.72-8.06-2.16,0-4.8,1-3.71,3s1.09,3.89,2.08,5.58c1.71,2.91-.4,2.51-1.83,2-3.75-1.25-7.21-1-10.46,1.29,1.58-5.06,7.12-7.08,9.1-11.78a45.27,45.27,0,0,1,10.21-14.4c.88-.87,2.33-2.38,1.09-4.09s-3.11-1.87-4.93-1.24c-3.12,1.09-6.42,1.6-9.4,3.23-3.84,2.11-8.07,1.76-12.28,1.27-7.72-.9-15.44,1.81-23.28-.71s-15.5-4.15-21.72-10c-2.2-2.06-5.78-2.66-7.13-5.93.54.14,1.08.26,1.6.43,5.11,1.61,9.53,6.62,15.65,3.13.31.61.78,1.23,1.38.54.34-.4-.33-.8-.78-1,1-.7-3.06-3.11,1-2.83,1.17.09.85-.85.7-1.45-.66-2.69,1.19-3.37,3.13-3.67,1.29-.2,1.75-.55,1.26-1.79,3.08-.68,6,.78,9.06.77C443.67,549.29,451,547.3,458.46,546.54Zm54.93,63.53c-.15.72-.19,1-.26,1.27-.6,2.23.34,4.31,2.14,5,2.43.89,1.84-2.08,2.81-3.14,1.42-1.57-.36-4.45,1.88-5.23,5-1.72,4.52-4.43,2.07-8-1-1.51-2.15-3.92-3.93-2.79-2.17,1.39-6.12,2.9-4.68,6.32A7.54,7.54,0,0,1,513.39,610.07Zm104.4-141.6a6.49,6.49,0,0,0-5.06-6.14c-2.58-.6-3.08,3-3.63,4.36-.85,2.12,1.6,4.8,3.67,5.21C614.5,472.25,616.65,470.36,617.79,468.47Zm-106,132.91c-2,2.35-5.24,2.71-7.25,4.86a3.87,3.87,0,0,0-.06,5.34c1,1.2,3.52.66,3.83-.94C508.89,607.32,510.91,604.6,511.74,601.38Z"/><path class="cls-2" d="M656.33,381.11c.57-3.48,2.71-6.65,2-10.41-.12-.65.13-1.83-.56-1.74-4.28.58-7-3.39-11-3.66-1.83-.12-4.19,1.23-5.53-2.14-.53-1.32-4.11,1-6.44,1.32-6.2.76-10.85,4.63-15.45,8.47-1.17,1-2.79,2.8-3.85,1.44-1.2-1.55-3.72-3.4-1.76-6.14a6,6,0,0,0,.88-1.89c.19-.74.73-1.72-.42-2.14-.74-.26-1.28.33-1.75.87-2.93,3.35-5.87,6.68-9.19,10.45a9.76,9.76,0,0,1,1.86-7.62,14.36,14.36,0,0,0,2.91-6c.44-2.76,1.82-2,3.52-.29.06-2.68-.11-4.78,1.3-6.59.72-.94.68-2.67-.15-3.14-2.9-1.62-3-4.29-3.17-7-.3-3.6-3-2.19-5.48-2.52,6.32-1.79,4.92-7.88,7.41-11.74.71-1.09.92-2.77-.53-3.27s-2.34.95-2.27,2.23a2.87,2.87,0,0,1-1.78,3c-1.54.87-2.71,1.2-2.4-1.31.1-.78.54-1.85-.62-2.07-.48-.1-1.15.61-1.68,1-3,2.34-6.09,4.17-10.28,3.73a4,4,0,0,1-3.76-2.48c-.7-1.36-.78-3.82-3.95-2.59-1.69.66-3.1-1.6-3.2-3.62-.08-1.73.65-3,2.67-3,3.59,0,5.38-3.26,8.29-4.49a1.66,1.66,0,0,0,.59-1.44.86.86,0,0,0-1.32-.54c-1.49,1.2-3.68,2.63-4.51.52s-1.38-4.87.24-7.22c.49-.71,2.15-1,.12-2.36-3-1.95-2.5-8.52.79-9.66,2.19-.76,3.87-4,7-2,.67.44,1.65-.41,2-1.19a3.67,3.67,0,0,0-1.37-4c-3.85-1.7-2.05-3.81-.84-6,8.35,5.56,11.19,14.55,4.31,22.22-2.48,2.76-.67,6.79,0,10.18.14.67,1.86,1.46,2.81,1.41,1.5-.07,1.62-1.62,1.9-2.87.54-2.4-.34-5.71,3.68-6-.47,2.26.28,3.58,2.61,4.42,6,2.16,10.32,6.67,14.81,10.88,1,.94,1.55,1.72,2.49.44,1.41-1.92,2.71-1.06,4.35-.37,2.56,1.08,4.14-.1,4.28-2.8.18-3.41-4-6.84-7.06-5.52-2.77,1.17-3.51-.19-4.37-2.15-.64-1.47-.78-3.21-2.94-3.69-3.94-.89-7.64-2.75-11.75-3.06.58-3.14,2.11-6.63,2.45-8.28,1-5,.68-3.23,1-9.27a70,70,0,0,1,1.91-13.41l1-5c.17-.82-.06-2.31.18-5.61.46-6.39,1.24-12.78.65-19.22a3.09,3.09,0,0,1,1-2.66c2.12,2.63,4.94,5,6.18,8,1.15,2.79,2.64,2.85,4.74,2.46,2.7-.5,5.5-1,6.94-3.83.53,4.36.83,8.74,1.36,13.11.8,6.53,2.6,13,1.86,19.69-2.62-1.61-4.39-4.75-7.94-4.67a37.36,37.36,0,0,1-7.38-.28c-2.75-.5-5.82,1.07-6.25,3.75s2.49,3.06,4.81,3.08c.16,0,.32.34.48.53-.29.79-2.05.17-1.62,1.31a4.7,4.7,0,0,0,2.9,2.77c4.31,1.68,9-.36,13.31,1.69,1.69.81,1.63-1.34,2-2.42,1.88,1.52.67,3.41.48,5.07-.86,7.36-2.71,14.72-2.58,22,.12,6.53-1.17,12.81-2.37,18.6-.51,2.48-1.85,4.79-2,5.62-.25,1.21-2.27,4.84-1.87,5.75,1.46,3.32,2.76,6.82,4.83,9.74a12.49,12.49,0,0,0,8.07,5c5,.86,9.65,2.37,13.64,5.6.42.35,1,.5,1.38.9C661.56,370.21,659.91,378.6,656.33,381.11ZM599.09,298.7c.67.07,1.44.28,1.69-.62a1.14,1.14,0,0,0-.95-1.52,1.44,1.44,0,0,0-1.72.82C597.66,298.31,598.37,298.53,599.09,298.7Z"/><path class="cls-1" d="M447,644.17c1.68-.68,1.71-2.38,1.56-3.59-.45-3.59.72-7.26-.62-10.77-.46-1.19.34-1.62,1.1-2.35,3-2.88,5.81-5.94,8.73-8.9.72-.73,1.43-1.23.61-2.41a.84.84,0,0,1,.89-1.34c1.32.42,2.9,1.72,3.61-.15a6.14,6.14,0,0,0-.57-5.59c-.81-1.17-1.67-3.39-3.7-1.1a1.33,1.33,0,0,1-1.91.17c-.84-.83,0-1.51.52-2.13,2.44-2.9,6.8-2.26,9.24,1.71,2,3.3,4.46,4,8,2.8,1.59-.53,3.59-1.83,5.07.79,1,1.7,1.88-.22,2.68-.62,1.62-.81,3.34-.94,4.07.64.8,1.74-1.26,2.18-2.38,2.75-3.39,1.71-7.33,1.83-10.69,3.72-4,2.26-6.62,5.4-6.7,10.14,0,1.9-1.42,3.13-1.74,5-1,6.15,2.2,11.54,2.41,17.39.06,1.8,1.81,1.51,2.82,2,3.72,2,4.13,3.66,1.45,6.84-1.35,1.6-3,2.77-.81,5.2,1.2,1.31-2.36,3.2-.48,5.2A74.75,74.75,0,0,1,455.9,666c-2.79-.92-4.28-3-5.54-5.34C447.62,655.47,446,650.09,447,644.17Z"/><path class="cls-1" d="M635.92,250.28c-1.44,2.85-4.24,3.33-6.94,3.83-2.1.39-3.59.33-4.74-2.46-1.24-3-4.06-5.36-6.18-8-.14-1-.27-1.94-.41-2.9.87-1.06.58-1.79-.64-2.26-.42-1.17-.85-2.33-1.28-3.5a3.21,3.21,0,0,0-.88-3.73l1.26-2.88c3-2.53,2.19-5.61,1.3-8.73-1-3.67-3.55-7.81,2.81-9.28.34-.07.67-.53.84-.89a11.18,11.18,0,0,1,5.81-5.4c2-.69,3.41-.46,3.45,2.08s.54,4.45,3.46,2l1.44-.46a4.28,4.28,0,0,0,2.41,1.47c3.9,1,5,2.8,3.27,6.17s-.12,5.67,2.74,6.65,3.6,2.73,4.08,5.1c.58,2.84-2,3.11-3.53,4-5.14,2.94-7.72,7.12-7.19,13.11A11.06,11.06,0,0,1,635.92,250.28Z"/><path class="cls-1" d="M420.35,558.75c-6.12,3.48-10.54-1.53-15.65-3.14-.52-.17-1.06-.29-1.6-.43-6.88-6.94-12.72-14.38-13.06-24.83-.15-4.33,1.4-6.92,5.11-8.08,2.7-.85,4.31.23,5.58,2.32,2,3.34,4,6.71,6,10.08,4.58,7.81,12,11.49,20.25,13.87.49,1.24,0,1.59-1.26,1.79-1.94.3-3.79,1-3.13,3.67.15.6.47,1.54-.7,1.45-4-.28,0,2.13-1,2.83C420.75,558.44,420.56,558.6,420.35,558.75Z"/><path class="cls-2" d="M530.49,310.41c1.53,1.34,2.74,3,2.15,5-1,3.67.66,6.46,2.48,9.33,2.55,4,6.88,6.42,9.51,10.42.77,1.18,2.7,1.52,4.28,1.16,1.79-.42,1.23-1.85,1.16-3.08a2.86,2.86,0,0,1,2.76-3.15c4.47-.53,8.48.51,11.38,4.24,1.19,1.53.23,2.59-1,3.47-1.66,1.15-3.82,1.77-3.34,4.67.23,1.37-1.19.74-2.09.91-3.63.7-7.27-1.75-11,.53-2.59,1.59-4.18,2.58-2.22,5.81,2.25,3.7,4.14,7.59,8.77,8.86.19.06.54.1.55.17,0,.54-.08,1.09,0,1.62.27,2.53,1.51,4.95,3.71,5.68,5.25,1.73,4.37,5.93,4.7,9.75-4.05-3.48-7.48-7.65-11.86-10.76-1.85-1.32-2.37-3.59-3.8-5.31-6.38-7.69-11.4-16.18-12-26.6-.29-4.89-3.19-9.14-3.69-14.07C530.55,316.2,530.69,313.3,530.49,310.41Z"/><path class="cls-2" d="M589.51,284c-3.17,4-7.33,6.66-12.37,7.07-4.42.36-8.51,2.73-13.22,1.48-3.54-.94-10.11,3.86-11.51,7.75-1,2.74-2,5.16-4.28.85-.44-.81-1.15-1.56-2-1.18-2.2,1-3.76-.7-5.63-1-1.08-.19-2.25-.69-3.06.53a2.57,2.57,0,0,0,0,3.08c1.84,3.13,2.71,7.24,8,6,.74-.17,2.86-.12,3,1.59s-1.32,2.61-2.81,3.2c-4.17,1.66-7.1.18-9.69-3.27s-4.46-7.26-8.68-8.93c-3.57-2.7-3.22-7-4-10.67-.4-2,1.9-2.68,3.65-1.9,2.16.95,4.56,1.94,6.11,3.62,3.21,3.47,7.68,3.8,11.59,5.52,1.09.48,1.89-.16,2.68-.74,9.26-6.66,19.52-10.27,31-10.1a11.49,11.49,0,0,0,5.24-1.31C585.41,284.65,587.27,283.56,589.51,284Z"/><path class="cls-2" d="M567.56,411.23a25.47,25.47,0,0,1-3.25,15,81.87,81.87,0,0,0-3.77,7.7c-.89,2.21-.78,4.45-3.13,6.21-1.12.84-3.06,3.72.43,5.2.89.38.63,1.2.26,1.75-1.72,2.63-3.07,5.52-6.79,6.26-1.19.23-3.08.33-3.88,2.05-.52,1.11-.87,2.16,0,3.13s2,.42,2.58-.26c2.62-3.09,6.35.38,9.32-1.55-1,1.45.78,5.32-3.66,3.47-.53-.22-1.11.75-1.2,1.5-.24,1.82,1.88,1.27,2.3,2.69-1.52-.34-3.56,2.44-4.47-1.89-.46-2.12-4.28.06-4.22,1.14.14,2.65-5.72,5.63.28,8.14.94.4.27,3.39-.6,3.73-3.34,1.29-1.72,8.51-6.63,6.41-2.91-1.25-6.6-.94-8.86-3.68a36,36,0,0,1,8-12.27c2.84,1.12,5.42,1.66,6.17-2.9l-5.63,2.1c1.09-4.33,4.07-7.66,6.24-11.38a220.12,220.12,0,0,0,15-30C563.69,419.51,564.66,414.94,567.56,411.23Zm-28.2,65.93c1.06.38,1.82-.37,2.72-.67,1.44-.48,2-1.18,1.56-2.76-.24-.91,0-1.91-1.13-2.41-1.85-.8-1.73,1.34-2.77,1.82-1.87.85-.06,2.51-.6,3.71a4.07,4.07,0,0,0-.56.38C538.87,477.82,539.11,477.47,539.36,477.16Z"/><path class="cls-1" d="M461.44,598.84c3.25-2.34,6.71-2.54,10.46-1.29,1.43.48,3.54.88,1.83-2-1-1.69-1-3.71-2.08-5.58s1.55-3,3.71-3c6.14,0,10.53,3.15,13.72,8.06,1.5,2.3,2.76,4.19,6.06,3.84,1.38-.14,3.93,0,3.55,2.95s-1.88,2.24-3.83,1.58c-.84-.28-2.07.61-3.12,1s-2.63,1.49-3.52,1.14c-4.27-1.68-8.92.44-13.27-2.06a18.18,18.18,0,0,0-13.26-1.6c-.88.21-1.28-.23-1.81-.64C460.15,600.25,460.16,599.13,461.44,598.84Z"/><path class="cls-1" d="M493.38,651.3c2.3-2.83,4.13-3.29,6.28.43,1.86,3.21,5.48,1.66,7.82,1,5.58-1.53,11.07,1,12.69,6.8-.26.05-.58.21-.75.11-1.26-.72-2.08-2.5-3.93-1.82a2.08,2.08,0,0,0-1.17,2.08c0,2.12,1.74,2.79,3.3,3.17,2.06.52,2.19,1.85,2.06,3.49-6.2-.4-12.06-2.39-17.94-4.1-3.61-1.06-3.87-5.57-6.4-8A14.35,14.35,0,0,1,493.38,651.3Z"/><path class="cls-1" d="M479.19,624.23c3.57-1.64,7.45-1.57,11.22-1.92,1.43-.13,2.93.54,4.51.86-1,2.9-2.25,5.92.78,8.51.09.07,0,.27.09.4.6,1.75-4.3,12.41-6.14,13.36A109.73,109.73,0,0,1,479.19,624.23Z"/><path class="cls-1" d="M609.76,307.08c4.11.31,7.81,2.17,11.75,3.06,2.16.48,2.3,2.22,2.94,3.69.86,2,1.6,3.32,4.37,2.15,3.1-1.32,7.24,2.11,7.06,5.52-.14,2.7-1.72,3.88-4.28,2.8-1.64-.69-2.94-1.55-4.35.37-.94,1.28-1.48.5-2.49-.44-4.49-4.21-8.85-8.72-14.81-10.88-2.33-.84-3.08-2.16-2.61-4.42C607.51,307.48,609,307.76,609.76,307.08Z"/><path class="cls-1" d="M639.49,288.84c-.41,1.08-.35,3.23-2,2.42-4.31-2.05-9,0-13.31-1.69a4.7,4.7,0,0,1-2.9-2.77c-.43-1.14,1.33-.52,1.62-1.31-.16-.19-.32-.53-.48-.53-2.32,0-5.23-.46-4.81-3.08s3.5-4.25,6.25-3.75a37.36,37.36,0,0,0,7.38.28c3.55-.08,5.32,3.06,7.94,4.67C639.26,285,639.37,286.92,639.49,288.84Z"/><path class="cls-2" d="M493.8,519.11c-.51,2.54-.21,6.53-1.69,7.38-5,2.82-7.15,9.94-14.25,9.3.47-2.75,2.71-4.45,4.57-5.8C486.78,526.87,488.88,521.52,493.8,519.11Z"/><path class="cls-2" d="M531.69,478.72c-2.13,5.92-3.5,12.35-10.58,14.78a3.16,3.16,0,0,0-2.33,2.26c-.4,2.9-2.46,3.42-4.82,3.63C519.42,492.11,525.66,485.5,531.69,478.72Z"/><path class="cls-2" d="M626.87,204.09a11.18,11.18,0,0,0-5.81,5.4c-.17.36-.5.82-.84.89-6.36,1.47-3.85,5.61-2.81,9.28.89,3.12,1.66,6.2-1.3,8.73.67-4.13-1.33-7.76-2.2-11.6-.79-3.55-.41-6.42,3.87-7.17,1.71-.29,2-1.68,2.65-2.9C621.82,204.08,623.75,202.57,626.87,204.09Z"/><path class="cls-2" d="M562.38,378.13c3.4,3.8,7.23,6.82,7.15,13.17-.06,4.08,1.78,8.31.28,12.6-.52-4.92-2.53-9.57-2.26-14.67.17-3.2-2.74-5.24-4.27-7.79C562.62,380.35,561.63,379.54,562.38,378.13Z"/><path class="cls-2" d="M464.23,544.51c-1.14,2.08-2.1,4.69-5.05,1.86A4.56,4.56,0,0,1,464.23,544.51Z"/><path class="cls-1" d="M540.76,465.14l5.63-2.1c-.75,4.56-3.33,4-6.17,2.9Z"/><path class="cls-2" d="M505,507.66a28.66,28.66,0,0,1,.4,2.89c0,.66,0,1.57-.77,1.75-1.08.26-1-1.18-1.72-1.5A3.58,3.58,0,0,1,505,507.66Z"/><path class="cls-2" d="M501.25,512.86c-.48,2.12-.71,4.51-3.95,3.53A6.35,6.35,0,0,1,501.25,512.86Z"/><path class="cls-2" d="M477.85,535.8c-.46,2.14-2,2.7-3.93,2.68A3.76,3.76,0,0,1,477.85,535.8Z"/><path class="cls-2" d="M637.63,209.13a4.28,4.28,0,0,1-2.41-1.47c.49-.84,1.23-1.71,2.15-1.12S637.58,208.24,637.63,209.13Z"/><path class="cls-2" d="M633.78,208.12c-2.92,2.5-3.37.59-3.46-2Z"/><path class="cls-2" d="M614.85,231.27a3.21,3.21,0,0,1,.88,3.73C614,234.09,613.22,233,614.85,231.27Z"/><path class="cls-2" d="M653.28,383a2.37,2.37,0,0,1,3-1.84C655.91,382.78,655,383.54,653.28,383Z"/><path class="cls-2" d="M466.92,543.09c-.19,1.16-.75,1.77-2,1.28A1.46,1.46,0,0,1,466.92,543.09Z"/><path class="cls-2" d="M617,238.5c1.22.47,1.51,1.2.64,2.26A1.39,1.39,0,0,1,617,238.5Z"/><path class="cls-2" d="M529.1,306.43a1.77,1.77,0,0,1,.82,2.22C528.83,308.21,528.46,307.51,529.1,306.43Z"/><path class="cls-2" d="M610.52,386.42c-4,.36-1.37,3.16-1.58,4.76-.16,1.19,1.43,2.49.15,3.83-.15.16-.78,0-1.09-.16-1.6-.88-1.76-2.4-1.64-4,.07-.83.26-1.66.38-2.49s.81-1.75,0-2.32c-1.19-.78-1.71.48-2.28,1.17s-1.2,1.42-2,.74.06-1.47.37-2.18A23.19,23.19,0,0,1,612,375.45c.67-.43,1.37-.65,1.92-.17a1.39,1.39,0,0,1-.16,2.2c-2.9,2.36-3.29,5.57-3.25,9Z"/><path class="cls-2" d="M528.14,502.26c-.17-2.47,1.82-4.28.17-6.31-.71-.87.25-1.49.91-2,2.65-1.88,5.5-1,8.26-.38.87.21,1.8,1.24.86,2.26-.69.75-2.3,1.67-2.73.25-1-3.26-2-1-3.05-.27C530.49,497.33,530,500,528.14,502.26Z"/><path class="cls-2" d="M602.67,392.54c1.7,1.08,1.5,3.08,1.74,4.75s1.46,4.89-.42,5.28c-2.43.5-1.68-2.66-2.32-4.29a18.84,18.84,0,0,1-1.1-3.89C600.32,392.89,601.16,392.4,602.67,392.54Z"/><path class="cls-2" d="M453.67,556.85c-1.57,1.67-2.95,3.61-5.29,3-1.17-.31-3.5-.94-2.84-2.7.86-2.31,3.45-2.65,5.67-2.61A2.91,2.91,0,0,1,453.67,556.85Z"/><path class="cls-2" d="M594.31,403.48c.25-1.83.76-3.55,2.47-2.88,1.17.46,2,2.37,1.7,3.78a2.72,2.72,0,0,1-3.35,1.84C593,405.8,594.62,404.16,594.31,403.48Z"/><path class="cls-2" d="M529.82,491c.31-2.84-.09-4.88,2.16-5.51a1.83,1.83,0,0,1,2.07,1.58C534.11,489.4,531.74,489.21,529.82,491Z"/><path class="cls-2" d="M617.08,398.88c-.06,1.62-.14,3.11-.14,4.61a1.58,1.58,0,0,1-1.48,1.7c-.52.09-1.16.13-1.45-.51s.08-1.33.48-1.91C615.34,401.52,616.16,400.25,617.08,398.88Z"/><path class="cls-2" d="M537.23,488.57c2.12-2,3.62-2.82,5.49-2.75a1.34,1.34,0,0,1,.25,1C542,489.1,540,488.2,537.23,488.57Z"/><path class="cls-2" d="M497.35,524.39c-.23.6-.32,1.28-1.06,1-.19-.07-.3-.7-.23-1,.11-.54.46-1,1.1-.92C497.29,523.46,497.3,524.12,497.35,524.39Z"/><path class="cls-2" d="M478.05,543.21c-.35.11-.79.4-1.08.3-.71-.25-.3-.86-.19-1.31.07-.29.13-1,.71-.46C477.74,542,477.77,542.45,478.05,543.21Z"/><path class="cls-2" d="M488.47,538.89c-.26.43-.35,1.06-1.06,1a.38.38,0,0,1-.2-.31c.19-.69.78-.59,1.3-.61Z"/><path class="cls-2" d="M467.49,552.08a4,4,0,0,1-1,0,1,1,0,0,1-.09-.65,4.27,4.27,0,0,1,.95-.24Z"/><path class="cls-2" d="M455.2,553c-.11,0-.26,0-.31,0s-.05-.21-.08-.33h.52Z"/><path class="cls-2" d="M610.48,386.45a7.58,7.58,0,0,1,.4.68c0,.06-.09.19-.15.29l-.21-1Z"/><path class="cls-2" d="M560.18,488.15l-.25.26.28-.21Z"/><path class="cls-1" d="M513.39,610.07a7.54,7.54,0,0,0,0-6.56c-1.44-3.42,2.51-4.93,4.68-6.32,1.78-1.13,2.89,1.28,3.93,2.79,2.45,3.53,2.91,6.24-2.07,8-2.24.78-.46,3.66-1.88,5.23-1,1.06-.38,4-2.81,3.14-1.8-.66-2.74-2.74-2.14-5C513.2,611.07,513.24,610.79,513.39,610.07Z"/><path class="cls-1" d="M617.79,468.47c-1.14,1.89-3.29,3.78-5,3.43-2.07-.41-4.52-3.09-3.67-5.21.55-1.37,1-5,3.63-4.36A6.49,6.49,0,0,1,617.79,468.47Z"/><path class="cls-1" d="M511.74,601.38c-.83,3.22-2.85,5.94-3.48,9.26-.31,1.6-2.82,2.14-3.83.94a3.87,3.87,0,0,1,.06-5.34C506.5,604.09,509.73,603.73,511.74,601.38Z"/><path class="cls-1" d="M421,558.28c.45.2,1.12.6.78,1-.6.69-1.07.07-1.38-.54C420.56,558.6,420.75,558.44,421,558.28Z"/><path class="cls-1" d="M579.59,511.18l.25-.31-.28.25Z"/><path class="cls-1" d="M536.47,548.85a1.19,1.19,0,0,1,.18-.29c.05,0,.16,0,.24,0l-.46.24Z"/><path class="cls-1" d="M599.09,298.69c-.72-.16-1.43-.38-1-1.31a1.44,1.44,0,0,1,1.72-.82,1.14,1.14,0,0,1,.95,1.52C600.53,299,599.76,298.77,599.09,298.69Z"/><path class="cls-1" d="M539.14,476.85c.54-1.2-1.27-2.86.6-3.71,1-.48.92-2.62,2.77-1.82,1.16.5.89,1.5,1.13,2.41.42,1.58-.12,2.28-1.56,2.76-.9.3-1.66,1.05-2.72.67Z"/><path class="cls-1" d="M539.36,477.16c-.25.31-.49.66-.78.07a4.07,4.07,0,0,1,.56-.38Z"/><circle class="cls-3" cx="714.83" cy="167.71" r="35.9"/><path d="M170.84,829.5l-1.56-.71q16.54-7.54,46.67-9.52,22.8-19.2,36.46-28.45T285.9,774.4l1.56.54q-24,11.85-33.25,18.76t-26.55,25l9.68-.81a41.58,41.58,0,0,1,9.45-9.43,18.63,18.63,0,0,1,10.69-3.23q7.33,0,7.34,4.58,0,3.76-6.79,6a78,78,0,0,1-16.63,3.23A88.35,88.35,0,0,0,238.9,831l-9.21,2q4.22-10.15,6.72-13.56l-10,.72A133.25,133.25,0,0,1,172.94,856q-31.45,11.58-69.24,11.58-13.74,0-22.09-2.65t-8.35-8.12q0-3,3-5.16a13.13,13.13,0,0,1,7.89-2.2,12,12,0,0,1,5.7,1.08,3.27,3.27,0,0,1,2,3q0,3.49-7.34,3.5-4.68,0-6.09-3.86-2.8,2-2.81,3.68,0,4,8.12,6.77T105,866.3a153.08,153.08,0,0,0,31-3.1,143.85,143.85,0,0,0,28.5-8.93,156.8,156.8,0,0,0,25.68-14.13,195.78,195.78,0,0,0,24.12-19.43Q186.3,823,170.84,829.5Zm75.72-47.56,1.56.36A104.36,104.36,0,0,1,227,799.13a107.41,107.41,0,0,1-26.23,11.53,105,105,0,0,1-29.27,4q-25.29,0-25.29-11.4,0-5.84,7.49-12.43t22-12.34a177.71,177.71,0,0,1,34.73-9.25,266.64,266.64,0,0,1,45.2-3.5q11.86,0,32.16,1.8,19.51,1.89,32.63,1.88a96.29,96.29,0,0,0,29.2-4.39l1.24.71a105.24,105.24,0,0,1-40.28,7.54q-10.14,0-31.69-2.6-13.42-1.53-20.37-2t-14.13-.45A206.52,206.52,0,0,0,203.62,772q-18.27,3.67-30.44,9.24t-18.5,11.58q-6.33,6-6.33,10.32,0,10.23,23.42,10.23a98.4,98.4,0,0,0,24.67-3.41,118.57,118.57,0,0,0,26.31-10.5A104.72,104.72,0,0,0,246.56,781.94Zm-4.38,35.63q12.33-1.08,16.4-3.59c2.7-1.68,4.06-3.05,4.06-4.13,0-2.21-1.83-3.32-5.47-3.32a12.43,12.43,0,0,0-8,2.83A33.7,33.7,0,0,0,242.18,817.57Z"/><path d="M303.38,840.72v1.53a33.64,33.64,0,0,1-19.51,6l-2.19-.18-2.5-.18q-25,14.91-43.24,14.9a18.58,18.58,0,0,1-6.32-1,10.21,10.21,0,0,1-4.38-2.74,5.86,5.86,0,0,1-1.48-3.95q0-6,9.21-11.75A85,85,0,0,1,255.22,834a86.4,86.4,0,0,1,22.87-3.64q10.62,0,10.62,5.66,0,4.57-7.65,10.68a15.24,15.24,0,0,0,3.43.36A32.64,32.64,0,0,0,303.38,840.72Zm-24.82-9.15q-8.74,0-20.06,5.7a130.28,130.28,0,0,0-20.3,12.52c-6,4.54-9,7.36-9,8.43s.75,1.75,2.26,2.38a14.89,14.89,0,0,0,5.7.94q8.26,0,19.9-4.71a97.22,97.22,0,0,0,20.53-11.13q8.91-6.41,8.9-10.09c0-1.2-.75-2.17-2.26-2.92A12.78,12.78,0,0,0,278.56,831.57Z"/><path d="M300.89,873.48l23.26-16.87c-1.77.6-3.23,1.14-4.37,1.61q-11.25,4.41-17.65,4.4-10.92,0-10.92-8.26c0-3.34,1.79-6.49,5.38-9.42a49.21,49.21,0,0,1,13.82-7.58,106.42,106.42,0,0,1,17.48-4.94,89.12,89.12,0,0,1,16.71-1.75q9.36,0,9.37,3.86a8,8,0,0,1-1.25,3.32l10.77-7.18H376.6l-58.07,38.05A260,260,0,0,0,348.89,858q15.69-6.6,37.71-17.28v1.53q-15.15,7.53-25.92,12.43t-22.17,9q-11.4,4.13-23.57,7.36-20,12.56-33.49,20.32T259,903.28A98.15,98.15,0,0,1,243.9,909a44.47,44.47,0,0,1-11.4,1.62,15.67,15.67,0,0,1-7.49-1.53c-1.87-1-2.81-2.3-2.81-3.86q0-3.76,6.56-8.26t18.73-8.92a256.71,256.71,0,0,1,28.42-8.31l22.79-5.56Zm-3,2q-29,7.17-42.78,11.35a98.87,98.87,0,0,0-22.95,9.83q-7.8,5-7.8,8.61c0,1.26.78,2.24,2.34,3a14.63,14.63,0,0,0,6.09,1.08,46.2,46.2,0,0,0,16.78-3.68,143.82,143.82,0,0,0,22.25-11.76Q291.2,880.84,297.92,875.46Zm53.86-40.39c0-1-.7-1.72-2.11-2.29a13.45,13.45,0,0,0-5.07-.85q-8.75,0-20.22,5.11a93.41,93.41,0,0,0-19.9,11.76q-8.43,6.65-8.43,9.78c0,.72.65,1.36,1.95,1.93a10.18,10.18,0,0,0,4.13.85q6.25,0,18.27-5.11a135.12,135.12,0,0,0,21.7-11.53Q351.78,838.3,351.78,835.07Z"/><path d="M469.65,842.61l-8,3.86q-18.74,9-27.71,12.65t-15.85,3.68c-3,0-4.52-1-4.52-3s1.4-5,4.21-8.8Q395.5,862.8,384.88,862.8a12.88,12.88,0,0,1-7.65-2.11,7.05,7.05,0,0,1-3-6.15q0-4.57,4.69-9a42.77,42.77,0,0,1,12.56-7.86,88.59,88.59,0,0,1,17.65-5.38,95.18,95.18,0,0,1,19-2,17.25,17.25,0,0,1,6.64,1,3.47,3.47,0,0,1,2.26,3.09,6.39,6.39,0,0,0-.23.85,11,11,0,0,1-.31,1.13l-.39,1.16,9.83-6.64,13.12-.54L455,833.18q-5,3.42-8.12,5.61t-5.31,3.64Q417.19,857.6,417.2,860.2c0,.9.72,1.34,2.18,1.34,2,0,4.94-.67,8.9-2s8.4-3.13,13.35-5.35,10.59-4.83,16.94-7.85,10-4.77,11.08-5.25Zm-41.21-11q-9.37,0-20.84,5.29a98.62,98.62,0,0,0-20,12q-8.5,6.74-8.51,9.51a2.61,2.61,0,0,0,1.56,2.25,7.77,7.77,0,0,0,3.91.89q6.39,0,18.42-5.11a132.11,132.11,0,0,0,21.7-11.58q9.68-6.47,9.68-10.14Q434.37,831.58,428.44,831.57Z"/><path d="M469.5,862.8l-2.5,2.07c3.22.24,4.84,1.34,4.84,3.32q0,5.82-23.73,5.83v-1.26a66,66,0,0,0,12.41-1.07c3.7-.72,5.54-1.71,5.54-3a1.7,1.7,0,0,0-.78-1.61,12.79,12.79,0,0,0-2.81-1l4.22-3.32a14,14,0,0,1-6.09-2.33q-1.87-1.53-1.88-6.46,0-4.32,4.77-8.71a44,44,0,0,1,12.56-7.76,88.19,88.19,0,0,1,17.18-5.3,90.81,90.81,0,0,1,18.26-1.93,16.16,16.16,0,0,1,6.64,1.17c1.72.78,2.57,1.85,2.57,3.23,0,1.56-1.06,2.95-3.2,4.17a14,14,0,0,1-7.1,1.84c-3.12,0-4.68-.77-4.68-2.33q0-3.5,5.46-3.5,3.12,0,3.75,1.62a1.94,1.94,0,0,0,1.25.53,2.31,2.31,0,0,0,1.56-.71,2.16,2.16,0,0,0,.78-1.62,2.57,2.57,0,0,0-1.72-2.29,10.64,10.64,0,0,0-4.68-.85q-8.28,0-20.06,5.12a96.91,96.91,0,0,0-20.38,11.66q-8.58,6.55-8.58,10.23c0,2,2.55,3,7.65,3a78.2,78.2,0,0,0,27.63-5q13.42-5,34.5-15.8v1.53a198.22,198.22,0,0,1-27.32,13.42,104.91,104.91,0,0,1-20,5.83A101.23,101.23,0,0,1,469.5,862.8Z"/><path d="M616.09,842.61l-8,3.86q-18.74,9-27.71,12.65t-15.85,3.68c-3,0-4.52-1-4.52-3s1.4-5,4.21-8.8q-22.32,11.76-32.94,11.76a12.88,12.88,0,0,1-7.65-2.11,7.05,7.05,0,0,1-3-6.15q0-4.57,4.69-9A42.7,42.7,0,0,1,538,837.67a88.29,88.29,0,0,1,17.64-5.38,95.2,95.2,0,0,1,19-2,17.22,17.22,0,0,1,6.63,1,3.47,3.47,0,0,1,2.26,3.09,6.39,6.39,0,0,0-.23.85,8.87,8.87,0,0,1-.31,1.13l-.39,1.16,9.83-6.64,13.12-.54-4.06,2.87q-5,3.42-8.12,5.61T588,842.43q-24.35,15.17-24.35,17.77c0,.9.72,1.34,2.18,1.34q3,0,8.9-2t13.35-5.35q7.41-3.31,16.94-7.85t11.08-5.25Zm-41.21-11q-9.37,0-20.84,5.29a98.62,98.62,0,0,0-20,12q-8.5,6.74-8.51,9.51a2.62,2.62,0,0,0,1.57,2.25,7.71,7.71,0,0,0,3.9.89q6.39,0,18.42-5.11a132.11,132.11,0,0,0,21.7-11.58q9.68-6.47,9.68-10.14Q580.81,831.58,574.88,831.57Z"/><path d="M807.33,954.91q29.73-12.93,47.93-20.5t34.4-13.49q16.2-5.92,28.85-9.21a166.08,166.08,0,0,1,24.34-4.54l1.48.59-4.29,2q-19.53,9.07-34.85,16.89T872.5,944.13q-17.38,9.69-32.4,18.9T808.51,983.2a73.91,73.91,0,0,0,16.27-2.15,152.62,152.62,0,0,0,18.87-5.71A181.55,181.55,0,0,0,861,967.92v1.25a170.39,170.39,0,0,1-24.48,9.9,92.19,92.19,0,0,1-29.22,5.23l-6.07,4.31H787.65l7.84-5.11a123.06,123.06,0,0,1-18-2.85,128,128,0,0,1-15.9-5.34q-12.87,4.1-23.82,7.12t-23.23,5.2a141.55,141.55,0,0,1-24.41,2.15q-12.28,0-19.16-2.26t-6.88-6.22q0-2.7,3.41-4.75a15.81,15.81,0,0,1,8.28-2,11,11,0,0,1,4.74.81c1.08.54,1.62,1.07,1.62,1.61q0,2.26-5.62,2.26-4.59,0-5.47-2.41-4.59,1.9-4.59,4.82c0,2.25,2,4,6.07,5.27s9.81,1.9,17.31,1.9a139,139,0,0,0,23.74-2.12,233,233,0,0,0,23.16-5.19q10.93-3.08,22.78-7Q748,968.21,743,963.1a16,16,0,0,1-5-11.48q0-6.72,7.1-11.81t21.16-5.08q15.52,0,26.11,5.6T807.33,954.91Zm-2.07.88q-2.82-7.6-13.17-13.82t-25.6-6.21q-10.95,0-16.79,3t-7.69,6.4a12,12,0,0,0-1.85,5.26A17.18,17.18,0,0,0,745,962.59q4.89,5.19,16.57,11.18Q777.28,967.79,805.26,955.79Zm.59,1.1q-6.08,2.77-19.09,8.18t-23.37,9.43A132.47,132.47,0,0,0,779.81,980a107.57,107.57,0,0,0,17.31,2.67q6.51-6.87,8.43-12.94A23.46,23.46,0,0,0,805.85,956.89Zm79.74-22.59,3.85-2.12q6.21-3.3,24.19-11.81t24-11.22q-11.53,1.1-29.89,6.94t-37,13.27q-18.64,7.42-34.7,14.44L808.22,956a22.94,22.94,0,0,1,.36,11.91q-1.4,5.26-6.43,11.41,5.77-3.58,14.35-8.26t14.2-7.64q5.63-3,18.13-9.58T885.59,934.3Z"/><path d="M910.89,949.21l24.56-13.74h12.73l-24.56,13.74h18.79l-1.63,1.24H921.69l-36,20.18q-5.93,3.21-13.09,7.75t-7.18,5c0,1,1.09,1.54,3.26,1.54q12.12,0,52.07-17v1.25L913,972.6q-30.62,13.3-44.53,13.31a12.28,12.28,0,0,1-5.33-.95c-1.28-.63-1.92-1.37-1.92-2.2q0-2.91,8.36-9.72t32.77-18.86q-15.09,5-42,16.74v-1.17q9-4.23,22.34-9.61t26-9.69h-10.8l2.07-1.24Z"/><path d="M980.87,967.92v1.25a209.87,209.87,0,0,1-30.33,12.46,93.22,93.22,0,0,1-27.81,4.28q-12.43,0-12.43-7,0-5.85,9-10.27a83.89,83.89,0,0,1,21-6.8,106.44,106.44,0,0,1,19.6-2.38,18.38,18.38,0,0,1,6.73,1c1.63.66,2.45,1.52,2.45,2.6,0,1.65-1.83,3.18-5.48,4.57A73.18,73.18,0,0,1,948.32,971a192,192,0,0,1-22.93,1.57q-11.24,6.3-11.24,9.58c0,.78.81,1.43,2.44,1.94a20.84,20.84,0,0,0,6.14.77Q946.55,984.89,980.87,967.92Zm-52.52,3.29a118.41,118.41,0,0,0,20.71-1.53,51.35,51.35,0,0,0,12.8-3.66c2.91-1.41,4.37-2.56,4.37-3.43q0-2.12-5-2.12a51.38,51.38,0,0,0-15.53,2.88A87.51,87.51,0,0,0,928.35,971.21Z"/><path d="M1070.23,925.3l7.4-3.94H1089L995.81,972.9Q979.1,982,979.1,983.5c0,.92,1,1.39,3,1.39a38.92,38.92,0,0,0,11.83-2.16q6.66-2.16,18-7.2t16.64-7.31v1.24q-20.12,9.13-29.44,12.79a47,47,0,0,1-17,3.66,9.49,9.49,0,0,1-4.52-1c-1.23-.66-1.85-1.42-1.85-2.3q0-3.74,7.4-8.7a226.51,226.51,0,0,1,20-11.62c.6-.39,2.37-1.43,5.33-3.11s5.82-3.35,8.58-5q-10.2,3.81-39.35,16.59v-1.16l42-18Q1027.33,948.41,1070.23,925.3Z"/><path d="M1024.81,970.77l-.29-1.16a216.1,216.1,0,0,1,26.33-9.58h13.32l-34.92,19.3c-2.47,1.36-4,2.63-4.73,3.8s-.1,1.76,1.77,1.76q7.39,0,22-5.42t27.07-11.4v1.24q-14.36,6.81-27.66,11.7t-21.75,4.9q-4.89,0-4.89-2.56,0-7.61,24-19.45c.89-.44,1.7-.86,2.44-1.28s1.46-.79,2.15-1.13A184.3,184.3,0,0,0,1024.81,970.77ZM1076,944.6c2.17,0,3.26.66,3.26,2a2.17,2.17,0,0,1-1.33,1.9,7,7,0,0,1-3.41.73c-2.66,0-4-.59-4-1.76,0-.68.54-1.32,1.63-1.93A7.68,7.68,0,0,1,1076,944.6Z"/><path d="M1135.33,967.92v1.25A210.34,210.34,0,0,1,1105,981.63a93.22,93.22,0,0,1-27.81,4.28q-12.43,0-12.43-7,0-5.85,9-10.27a83.89,83.89,0,0,1,21-6.8,106.44,106.44,0,0,1,19.6-2.38,18.38,18.38,0,0,1,6.73,1c1.63.66,2.44,1.52,2.44,2.6,0,1.65-1.82,3.18-5.47,4.57a73.18,73.18,0,0,1-15.24,3.43,192,192,0,0,1-22.93,1.57q-11.24,6.3-11.24,9.58c0,.78.81,1.43,2.44,1.94a20.79,20.79,0,0,0,6.14.77Q1101,984.89,1135.33,967.92Zm-52.52,3.29a118.41,118.41,0,0,0,20.71-1.53,51.49,51.49,0,0,0,12.8-3.66c2.91-1.41,4.36-2.56,4.36-3.43,0-1.41-1.67-2.12-5-2.12a51.38,51.38,0,0,0-15.53,2.88A87.51,87.51,0,0,0,1082.81,971.21Zm14.35-26.61h-4q31.07-7.61,45.42-13.3h9.76q-6.36,8.26-6.66,13.3h-1.48a50.13,50.13,0,0,1-4.58-10.3Q1124.68,938.68,1097.16,944.6Z"/><path class="cls-4" d="M42.15,766.77s254-94,645.3,0S450.22,781.11,733.39,849s462.85-19.45,462.85-19.45"/><path class="cls-4" d="M634.2,966.06c-380-86.13-625.33,4.65-625.33,4.65"/><path class="cls-4" d="M657.42,823.6,634.2,966.06c-5.65,44.4-11.89,50.64.59,56.87"/><path class="cls-4" d="M634.79,1022.93c106.05,31.2,274.49,93.58,540.48,9"/><path class="cls-5" d="M727.93,60c-2.54,7-10.14,16.62-2.54,35s-9.86,39.35-9.86,39.35"/><path class="cls-6" d="M682.31,170.67c23.76-1.19,49.7-19.09,48.15-32.1"/><path class="cls-6" d="M684.22,179.13c22.38.2,53.29-15,55.54-32.11"/><path class="cls-6" d="M688.13,154.91c.68,19.45,22.32,43.63,37.15,44.37"/><path class="cls-6" d="M694.27,141.65c2.54,24.84,26.38,53.07,43.44,51.9"/><path class="cls-6" d="M706.41,138.45c2.16,21.14,22.46,45.18,37,44.18"/></svg>