<svg id="Camada_1" data-name="Camada 1" xmlns="http://www.w3.org/2000/svg" viewBox="0 0 600 600"><defs><style>.cls-1{fill:#ecf5ea;}.cls-2{fill:#736159;}.cls-3{fill:#dbb58f;}.cls-4{fill:#f2d9d6;}.cls-5{fill:#391d13;}.cls-6{fill:#fff;}.cls-7{fill:#d7988f;}.cls-8{fill:none;stroke:#1d1d1b;stroke-miterlimit:10;}</style></defs><path class="cls-1" d="M242.17,442.84c-15.94,5.87-34.73,13.66-58.32,23.46-33.32,13.82-52.35,38.08-63.26,61.61A289.54,289.54,0,0,1,10,300C10,139.81,139.82,10,300,10s290,129.86,290,290.05A289.38,289.38,0,0,1,485.21,523.21c-30.46-47.51-74.28-62.66-74.28-62.66-20.05-7.72-36.48-14.05-50.63-18.92C351.2,438.5,343,436,335.48,434c28.25-11.56,61.92-34.06,88.19-64.81C422.41,380.34,413,426,411.36,438.4,423.67,437,454,433,474.79,420.27c16.28-144,49.88-266.21-87.46-330.11-2,2.65-4.75,6.76-7.76,11.5-1.07-.55-2.14-1.1-3.22-1.63,4.35-7.1,7.28-12.19,7.28-12.19s-17.68-26-73.31-21.71c-147.48,11.32-247.84,96.18-182.41,338,3.18,11.77,61.77,34.24,61.77,34.24s-8.49-45.3-12.67-65.21c26.9,29.88,60.64,51.28,88.34,61.94C258.24,437.15,250.6,439.73,242.17,442.84Z"/><path class="cls-2" d="M387.33,90.16c137.34,63.9,103.74,186.12,87.46,330.11C454,433,423.67,437,411.36,438.4c1.64-12.39,11.05-58.06,12.31-69.19,7.25-64,8.05-107.65,3.39-138.46-.4-2.7-.85-5.31-1.34-7.8-6.67-34.1-20.43-37.93-52.35-48.77,0,0-26.5-9.26-16.09-33.38.17-2.25,12.65-24,22.29-39.14C382.58,96.92,385.33,92.81,387.33,90.16Z"/><path class="cls-3" d="M410.93,460.55s43.82,15.15,74.28,62.66a290.08,290.08,0,0,1-364.62,4.7c10.91-23.53,29.94-47.79,63.26-61.61,23.59-9.8,42.38-17.59,58.32-23.46,0,.07,17.55,24.8,55.76,24.8s62-24.81,62-24.81l.41-1.2C374.45,446.5,390.88,452.83,410.93,460.55Z"/><path class="cls-4" d="M427.06,230.75c4.66,30.81,3.86,74.44-3.39,138.46C397.4,400,363.73,422.46,335.48,434c-14.61,6-27.75,9-37.67,8.76-8.82-.24-20-2.87-32.46-7.65-27.7-10.66-61.44-32.06-88.34-61.94C169.2,336,159.93,275,171,231.24c5.79,2.64,10,4.82,10,4.82,0,20,24,36.14,53.51,36.15h0c29.56,0,53.51-16.18,53.51-36.15,0,0,.31-4.1,9.8-4.33v.11c10.31,0,10.63,4.34,10.63,4.34,0,20,23.95,36.13,53.5,36.15h0c29.56,0,53.53-16.19,53.53-36.15C415.61,236.18,420.57,233.65,427.06,230.75Zm-127.54,151c38.91,1.37,44.05-12.89,44.05-12.89-8.46-.95-29.53-14.41-45.26-14.4s-35.08,13.31-43.54,14.28h0s5.15,14.26,44.05,12.89Z"/><path class="cls-5" d="M425.72,223c.49,2.49.94,5.1,1.34,7.8-6.49,2.9-11.45,5.43-11.45,5.43a22.1,22.1,0,0,0-1.42-7.93A114.71,114.71,0,0,1,425.72,223Z"/><path class="cls-4" d="M297.93,227.5c-9.33.37-9.8,4-9.8,4l-.43.09c-3.36-16.78-25.83-24.16-53.06-24.16h0c-25.31,0-46.52,6.36-52.1,20.73a102.64,102.64,0,0,0-9.28-4.53c3.63-11.1,8.81-20.8,15.95-28.32,27.15-13.89,70.76-7.18,94.83-14.9,39.66-12.71,50-20.1,61.74-34.95,5.2-6.58,21.31-30.26,30.59-45.41,1.08.53,2.15,1.08,3.22,1.63-9.64,15.16-22.12,36.89-22.29,39.14-10.41,24.12,16.09,33.38,16.09,33.38C405.29,185,419.05,188.85,425.72,223a114.71,114.71,0,0,0-11.53,5.3c-5.58-14.35-26.79-20.71-52.08-20.71h0c-27.25,0-49.73,7.37-53.09,24.16l-.43-.1s-.47-3.82-10.63-4Z"/><path class="cls-5" d="M414.19,228.25a22.1,22.1,0,0,1,1.42,7.93c0,20-24,36.15-53.53,36.15h0l0-3.12c26.71,0,48.36-14.63,48.36-32.66s-21.65-25.89-48.36-25.89l0-3.12C387.4,207.54,408.61,213.9,414.19,228.25Z"/><path class="cls-4" d="M362.08,210.66c26.71,0,48.36,7.85,48.36,25.89s-21.65,32.66-48.36,32.66-48.35-14.63-48.35-32.66S335.38,210.66,362.08,210.66ZM368,257.42a19.79,19.79,0,0,0,14.71-23.82c-2.52-10.64-12.23-13.18-22.87-10.66s-18.16,9.13-15.65,19.77A19.8,19.8,0,0,0,368,257.42Z"/><path class="cls-6" d="M382.71,233.6a19.79,19.79,0,1,1-38.52,9.11c-2.51-10.64,5-17.27,15.65-19.77S380.19,223,382.71,233.6ZM372,239.41a8.19,8.19,0,1,0-8.19,8.19A8.19,8.19,0,0,0,372,239.41Z"/><path class="cls-2" d="M383.63,87.84s-2.93,5.09-7.28,12.19c-9.28,15.15-25.39,38.83-30.59,45.41C334,160.29,323.68,167.68,284,180.39c-24.07,7.72-67.68,1-94.83,14.9-7.14,7.52-12.32,17.22-15.95,28.32q-1.22,3.72-2.2,7.63c-11.11,43.77-1.84,104.74,6,142,4.18,19.91,12.67,65.21,12.67,65.21s-58.59-22.47-61.77-34.24c-65.43-241.85,34.93-326.71,182.41-338C366,61.86,383.63,87.84,383.63,87.84Z"/><path d="M363.84,231.22a8.19,8.19,0,1,1-8.18,8.19A8.19,8.19,0,0,1,363.84,231.22Z"/><path class="cls-5" d="M362.11,207.54l0,3.12c-26.7,0-48.35,7.85-48.35,25.89s21.65,32.66,48.35,32.66l0,3.12c-29.55,0-53.5-16.19-53.5-36.15a23.89,23.89,0,0,1,.43-4.48c3.36-16.79,25.84-24.16,53.09-24.16Z"/><path class="cls-4" d="M360.3,441.63l-.41,1.2s-23.85,24.8-62,24.81-55.72-24.73-55.76-24.8c8.43-3.11,16.07-5.69,23.18-7.71,12.44,4.78,23.64,7.41,32.46,7.65,9.92.27,23.06-2.8,37.67-8.76C343,436,351.2,438.5,360.3,441.63Z"/><path class="cls-7" d="M343.57,368.84s-27.7,2.08-43.89,0l-1-.12c-16,2-43.12.06-43.88,0,8.46-1,27.82-14.29,43.54-14.28S335.11,367.89,343.57,368.84Z"/><path class="cls-7" d="M299.68,368.84c16.19,2.08,43.89,0,43.89,0s-5.14,14.26-44.05,12.89l-.71-.12c-38.9,1.37-44.05-12.89-44.05-12.89h0c.76.06,27.91,2,43.88,0Z"/><path class="cls-5" d="M297.93,231.73c-9.49.23-9.8,4.33-9.8,4.33a23.27,23.27,0,0,0-.43-4.49l.43-.09s.47-3.61,9.8-4v.09c10.16.19,10.63,4,10.63,4l.43.1a23.89,23.89,0,0,0-.43,4.48s-.32-4.34-10.63-4.34Z"/><path class="cls-5" d="M287.7,231.57a23.27,23.27,0,0,1,.43,4.49c0,20-23.95,36.15-53.51,36.15h0l0-3.12c26.7,0,48.35-14.63,48.35-32.67s-21.65-25.87-48.35-25.87l0-3.14C261.87,207.41,284.34,214.79,287.7,231.57Z"/><path class="cls-4" d="M214.72,236.35c0,.29,0,.58,0,.87a19.79,19.79,0,0,0,39.58,0c0-10.93-8.86-15.64-19.79-15.64C223.85,221.58,215.17,226,214.72,236.35Zm19.9-25.8c26.7,0,48.35,7.83,48.35,25.87s-21.65,32.67-48.35,32.67-48.36-14.63-48.36-32.67S207.91,210.55,234.62,210.55Z"/><path class="cls-6" d="M254.28,237.22a19.79,19.79,0,0,1-39.58,0c0-.29,0-.58,0-.87.45-10.31,9.13-14.77,19.77-14.77C245.42,221.58,254.28,226.29,254.28,237.22Zm-12,.85a7.76,7.76,0,1,0-7.76,7.76A7.76,7.76,0,0,0,242.25,238.07Z"/><circle cx="234.49" cy="238.07" r="7.76"/><path class="cls-5" d="M234.64,207.41l0,3.14c-26.71,0-48.36,7.83-48.36,25.87s21.65,32.67,48.36,32.67l0,3.12c-29.55,0-53.51-16.18-53.51-36.15a21.62,21.62,0,0,1,1.44-7.92c5.58-14.37,26.79-20.73,52.1-20.73Z"/><path class="cls-5" d="M182.52,228.14a21.62,21.62,0,0,0-1.44,7.92s-4.25-2.18-10-4.82q1-3.92,2.2-7.63A102.64,102.64,0,0,1,182.52,228.14Z"/><path class="cls-8" d="M485.21,523.21A289.38,289.38,0,0,0,590.05,300c0-160.19-129.86-290-290-290S10,139.81,10,300A290,290,0,0,0,485.21,523.21Z"/><path class="cls-8" d="M335.48,434c-14.61,6-27.75,9-37.67,8.76-8.82-.24-20-2.87-32.46-7.65"/><path class="cls-8" d="M423.67,369.21C397.4,400,363.73,422.46,335.48,434"/><path class="cls-8" d="M379.57,101.66c-1.07-.55-2.14-1.1-3.22-1.63"/><path class="cls-8" d="M265.35,435.13c-27.7-10.66-61.44-32.06-88.34-61.94"/><path class="cls-8" d="M254.28,237.22c0-10.93-8.86-15.64-19.79-15.64-10.64,0-19.32,4.46-19.77,14.77,0,.29,0,.58,0,.87a19.79,19.79,0,0,0,39.58,0Z"/><path class="cls-8" d="M254.76,368.72s5.15,14.26,44.05,12.89l.71.12c38.91,1.37,44.05-12.89,44.05-12.89"/><path class="cls-8" d="M254.77,368.72c8.46-1,27.82-14.29,43.54-14.28s36.8,13.45,45.26,14.4"/><path class="cls-8" d="M344.19,242.71a19.79,19.79,0,1,0,38.52-9.11c-2.52-10.64-12.23-13.18-22.87-10.66S341.68,232.07,344.19,242.71Z"/><path class="cls-8" d="M254.76,368.72h0c.76.06,27.91,2,43.88,0l1,.12c16.19,2.08,43.89,0,43.89,0"/><path class="cls-8" d="M173.24,223.61q-1.22,3.72-2.2,7.63"/><path class="cls-8" d="M376.35,100c4.35-7.1,7.28-12.19,7.28-12.19s-17.68-26-73.31-21.71c-147.48,11.32-247.84,96.18-182.41,338,3.18,11.77,61.77,34.24,61.77,34.24s-8.49-45.3-12.67-65.21"/><path class="cls-8" d="M376.35,100c-9.28,15.15-25.39,38.83-30.59,45.41C334,160.29,323.68,167.68,284,180.39c-24.07,7.72-67.68,1-94.83,14.9-7.14,7.52-12.32,17.22-15.95,28.32"/><path class="cls-8" d="M177,373.19C169.2,336,159.93,275,171,231.24"/><path class="cls-8" d="M379.57,101.66c-9.64,15.16-22.12,36.89-22.29,39.14-10.41,24.12,16.09,33.38,16.09,33.38C405.29,185,419.05,188.85,425.72,223"/><path class="cls-8" d="M423.67,369.21C422.41,380.34,413,426,411.36,438.4,423.67,437,454,433,474.79,420.27c16.28-144,49.88-266.21-87.46-330.11-2,2.65-4.75,6.76-7.76,11.5"/><path class="cls-8" d="M423.67,369.21c7.25-64,8.05-107.65,3.39-138.46"/><path class="cls-8" d="M425.72,223c.49,2.49.94,5.1,1.34,7.8"/><path class="cls-8" d="M206.1,234.41a5.4,5.4,0,0,0,.78.54,6.88,6.88,0,0,0,1.72.6l5.93,1.51"/><path class="cls-8" d="M208.49,230.3a5.58,5.58,0,0,1,2.41,1.84c1.28,1.4,2.54,2.81,3.82,4.21"/><path class="cls-8" d="M214.1,237.83a10.86,10.86,0,0,0-3,1c-.85.43-1.65,1-2.53,1.33a3.81,3.81,0,0,1-2.79.19"/><path class="cls-8" d="M389.18,232.2a29.35,29.35,0,0,0-6,2.66"/><path class="cls-8" d="M389.31,236.89a14.16,14.16,0,0,1-5.75-1.34"/><path class="cls-8" d="M383.3,233.67c.77-1.08,1.53-2.16,2.3-3.23a3.59,3.59,0,0,1,1.28-1.26"/><path class="cls-8" d="M256.4,330.39S232.45,337.6,227.68,358c-4.64,14.36,21.95,31.35,19.45,44.36"/><path class="cls-8" d="M341,330.39s24,7.21,28.73,27.64c4.64,14.36-22,31.35-19.46,44.36"/><path class="cls-8" d="M355.66,239.41a8.19,8.19,0,1,0,8.18-8.19A8.17,8.17,0,0,0,355.66,239.41Z"/><circle class="cls-8" cx="234.49" cy="238.07" r="7.76"/><path class="cls-8" d="M314,421.55c-16.79,19.79-30,0-30,0"/><path class="cls-8" d="M234.62,269.09c26.7,0,48.35-14.63,48.35-32.67s-21.65-25.87-48.35-25.87-48.36,7.83-48.36,25.87S207.91,269.09,234.62,269.09Z"/><path class="cls-8" d="M288.13,236.06a23.27,23.27,0,0,0-.43-4.49c-3.36-16.78-25.83-24.16-53.06-24.16h0c-25.31,0-46.52,6.36-52.1,20.73a21.62,21.62,0,0,0-1.44,7.92"/><path class="cls-8" d="M288.13,236.06c0,20-23.95,36.15-53.51,36.15h0c-29.55,0-53.51-16.18-53.51-36.15"/><path class="cls-8" d="M298.77,231.72h-.84c-9.49.23-9.8,4.33-9.8,4.33"/><path class="cls-8" d="M288.13,231.48s.47-3.61,9.8-4c.27,0,.55,0,.84,0"/><path class="cls-8" d="M173.24,223.61a102.64,102.64,0,0,1,9.28,4.53"/><path class="cls-8" d="M171,231.24c5.79,2.64,10,4.82,10,4.82"/><path class="cls-8" d="M362.08,210.66c-26.7,0-48.35,7.85-48.35,25.89s21.65,32.66,48.35,32.66,48.36-14.63,48.36-32.66S388.79,210.66,362.08,210.66Z"/><path class="cls-8" d="M308.56,236.18a23.89,23.89,0,0,1,.43-4.48c3.36-16.79,25.84-24.16,53.09-24.16h0c25.29,0,46.5,6.36,52.08,20.71a22.1,22.1,0,0,1,1.42,7.93"/><path class="cls-8" d="M308.56,236.18c0,20,23.95,36.13,53.5,36.15h0c29.56,0,53.53-16.19,53.53-36.15"/><path class="cls-8" d="M308.56,236.18s-.32-4.34-10.63-4.34"/><path class="cls-8" d="M297.93,227.59c10.16.19,10.63,4,10.63,4"/><path class="cls-8" d="M414.18,228.26h0a114.71,114.71,0,0,1,11.53-5.3"/><path class="cls-8" d="M415.61,236.18s5-2.53,11.45-5.43"/><path class="cls-8" d="M293.13,252.35s-3.38,37.41-14.47,48c-7,6.7-4.56,23.65,4.93,20.37,5.47-4.21,8.72-4.7,13.07-.6a3.58,3.58,0,0,0,2.53.95,3,3,0,0,0,2-.83c4.58-4.25,8-3.42,13.53.85,10,3.48,11.08-15.05,4.93-20.65-11.36-10.31-14.48-48-14.48-48"/><path class="cls-8" d="M485.49,523.65c-.09-.15-.18-.3-.28-.44-30.46-47.51-74.28-62.66-74.28-62.66-20.05-7.72-36.48-14.05-50.63-18.92C351.2,438.5,343,436,335.48,434"/><path class="cls-8" d="M242.17,442.84c-15.94,5.87-34.73,13.66-58.32,23.46-33.32,13.82-52.35,38.08-63.26,61.61a3.75,3.75,0,0,0-.19.41"/><path class="cls-8" d="M242.17,442.84c8.43-3.11,16.07-5.69,23.18-7.71"/><line class="cls-8" x1="242.17" y1="442.84" x2="242.16" y2="442.83"/><path class="cls-8" d="M359.89,442.83s-23.85,24.8-62,24.81-55.72-24.73-55.76-24.8"/></svg>