<svg id="Camada_1" data-name="Camada 1" xmlns="http://www.w3.org/2000/svg" viewBox="0 0 600 600"><defs><style>.cls-1{fill:#f9d4e6;}.cls-2{fill:#7c594b;}.cls-3{fill:#fff;}.cls-4{fill:#f8cac7;}.cls-5{fill:#d7988f;}.cls-6{fill:#f6ef8d;}.cls-7,.cls-8,.cls-9{fill:none;}.cls-7,.cls-8{stroke:#1d1d1b;}.cls-7{stroke-miterlimit:10;}.cls-8{stroke-linecap:round;stroke-linejoin:round;}</style></defs><path class="cls-1" d="M300,6.36c160.37,0,290.38,130,290.38,290.38A289.73,289.73,0,0,1,490,516.36L488.82,515C518.15,391.79,520.11,104.94,387,84c-2,2.7-4.85,6.9-7.93,11.75-1.09-.57-2.19-1.13-3.28-1.68,4.44-7.24,7.43-12.44,7.43-12.44s-17.94-24.16-74.88-22.18C82.17,67.38,74.19,287.18,95.7,496.74c.51,4.94,13.64,8.84,29.25,11.75A134.51,134.51,0,0,0,116.78,522,289.81,289.81,0,0,1,9.62,296.74C9.62,136.37,139.63,6.36,300,6.36Z"/><path class="cls-1" d="M488.82,515l1.16,1.36q-2.81,2.43-5.65,4.77c-1.09-1.63-2.15-3.21-3.27-4.76C483.69,516,486.29,515.52,488.82,515Z"/><path class="cls-2" d="M387,84c133.1,20.93,131.14,307.78,101.81,431-2.53.52-5.13,1-7.76,1.37-20.72,3.21-44.16,3-65.3-1.37,2.25-16.92,4-33.82,5.19-50.56,2.37-32.4,2.94-64.2,2.21-94.35-2.89-118.65-26-211.66-39-215.28,0,0-25.89-10.29-27.84-19.09.19-2.29,12.92-24.49,22.77-40C382.16,90.91,385,86.71,387,84Z"/><path class="cls-1" d="M423.16,370.09c.73,30.15.16,62-2.21,94.35a98.2,98.2,0,0,0-10.82-4.81c-20.48-7.88-37.25-14.33-51.7-19.3-7.55-2.61-14.48-4.81-21-6.61C365.23,421.7,397.54,399.7,423.16,370.09Z"/><path class="cls-3" d="M363,226c11.17,0,20.22,4.81,20.22,16s-9.05,18-20.22,18-20.21-6.89-20.21-18S351.85,226,363,226Zm8.37,16.48a8.37,8.37,0,1,0-8.37,8.37A8.36,8.36,0,0,0,371.38,242.47Z"/><path class="cls-2" d="M383.23,81.64s-3,5.2-7.43,12.44c-9.49,15.47-25.6,40.27-33.48,43.61-9,3.85-123,4.3-164.59,51.67-20.57,26.86-22,99.26-17.62,169,2.55,41,7.1,81,10.95,110.38,3.66,28,6.67,46.26,6.67,46.26s-29.23-2.12-52.78-6.51c-15.61-2.91-28.74-6.81-29.25-11.75C74.19,287.18,82.17,67.38,308.35,59.46,365.29,57.48,383.23,81.64,383.23,81.64Z"/><path d="M363,234.12a8.36,8.36,0,1,1-8.36,8.35A8.36,8.36,0,0,1,363,234.12Z"/><path class="cls-4" d="M337.47,433.72c6.48,1.8,13.41,4,21,6.61l-.42,1.22s-24.36,25.32-63.28,25.33-56.89-25.25-57-25.33c7.35-2.71,14.12-5,20.45-6.94,14.37,6,27.37,9.23,37.35,9.49C306.48,444.39,321.2,440.77,337.47,433.72Z"/><path class="cls-5" d="M303.3,354.82c13.22,1.4,27.9,9.74,34.56,10.5,0,0-23.61,1.76-37.42,0l-.88-.11c-13.61,1.75-36.73.05-37.4,0,6.18-.71,18.61-7.73,31-10.15,2.05-.39,3.43,1.71,5.69,1.71C300.49,356.77,301.79,354.65,303.3,354.82Z"/><path class="cls-5" d="M262.16,365.21c.67.05,23.79,1.75,37.4,0l.88.11c13.81,1.76,37.42,0,37.42,0S327.7,376.19,299.7,376.2c-32.6,0-37.55-11-37.55-11Z"/><path class="cls-3" d="M230.92,225.88c11.17,0,20.22,4.8,20.22,16s-9,17.19-20.22,17.19-20.21-6-20.21-17.19c0-.35,0-.7,0-1C211.28,230.39,220.11,225.88,230.92,225.88Zm7.93,15.8a7.93,7.93,0,1,0-7.93,7.93A7.92,7.92,0,0,0,238.85,241.68Z"/><path class="cls-6" d="M237.78,441.55c.06.08,17.93,25.33,57,25.33S358,441.55,358,441.55l.42-1.22c14.45,5,31.22,11.42,51.7,19.3A98.2,98.2,0,0,1,421,464.44c-1.23,16.74-2.94,33.64-5.19,50.56,21.14,4.41,44.58,4.58,65.3,1.37,1.12,1.55,2.18,3.13,3.27,4.76a290.43,290.43,0,0,1-367.55.9A134.51,134.51,0,0,1,125,508.49c23.55,4.39,52.78,6.51,52.78,6.51s-3-18.27-6.67-46.26q3.47-1.69,7.17-3.24C202.32,455.5,221.5,447.54,237.78,441.55Z"/><path d="M230.92,233.75a7.93,7.93,0,1,1-7.93,7.93A7.92,7.92,0,0,1,230.92,233.75Z"/><path class="cls-4" d="M337.47,433.72c-16.27,7-31,10.67-41.89,10.38-10-.26-23-3.53-37.35-9.49-31.87-13.2-70.51-39.67-98.12-76.25-4.37-69.74-3-142.14,17.62-169,41.56-47.37,155.55-47.82,164.59-51.67,7.88-3.34,24-28.14,33.48-43.61,1.09.55,2.19,1.11,3.28,1.68-9.85,15.47-22.58,37.67-22.77,40,1.95,8.8,27.84,19.09,27.84,19.09,13,3.62,36.12,96.63,39,215.28C397.54,399.7,365.23,421.7,337.47,433.72ZM363,260c11.17,0,20.22-6.89,20.22-18s-9.05-16-20.22-16-20.21,4.81-20.21,16S351.85,260,363,260Zm-152.3-18.16c0,11.16,9,17.19,20.21,17.19s20.22-6,20.22-17.19-9-16-20.22-16c-10.81,0-19.64,4.51-20.18,14.93C210.73,241.15,210.71,241.5,210.71,241.85ZM337.86,365.32c-6.66-.76-21.34-9.1-34.56-10.5-1.51-.17-2.81,1.95-4.4,1.95-2.26,0-3.64-2.1-5.69-1.71-12.44,2.42-24.87,9.44-31,10.15h0s5,11,37.55,11C327.7,376.19,337.86,365.32,337.86,365.32Z"/><path class="cls-1" d="M258.23,434.61c-6.33,1.91-13.1,4.23-20.45,6.94-16.28,6-35.46,13.95-59.55,23.95q-3.71,1.54-7.17,3.24c-3.85-29.34-8.4-69.39-10.95-110.38C187.72,394.94,226.36,421.41,258.23,434.61Z"/><path class="cls-7" d="M490,516.36a289.73,289.73,0,0,0,100.4-219.62c0-160.37-130-290.38-290.38-290.38S9.62,136.37,9.62,296.74A290.4,290.4,0,0,0,484.33,521.13Q487.18,518.79,490,516.36Z"/><path class="cls-7" d="M160.11,358.36c27.61,36.58,66.25,63.05,98.12,76.25"/><path class="cls-7" d="M337.47,433.72c27.76-12,60.07-34,85.69-63.63"/><path class="cls-7" d="M337.47,433.72c-16.27,7-31,10.67-41.89,10.38-10-.26-23-3.53-37.35-9.49"/><path class="cls-7" d="M375.8,94.08c1.09.55,2.19,1.11,3.28,1.68"/><path class="cls-7" d="M210.71,241.85c0,11.16,9,17.19,20.21,17.19s20.22-6,20.22-17.19-9-16-20.22-16c-10.81,0-19.64,4.51-20.18,14.93C210.73,241.15,210.71,241.5,210.71,241.85Z"/><path class="cls-7" d="M262.16,365.21c6.18-.71,18.61-7.73,31-10.15,2.05-.39,3.43,1.71,5.69,1.71,1.59,0,2.89-2.12,4.4-1.95,13.22,1.4,27.9,9.74,34.56,10.5"/><path class="cls-7" d="M262.15,365.21s5,11,37.55,11c28,0,38.16-10.88,38.16-10.88"/><path class="cls-7" d="M383.23,242c0-11.16-9.05-16-20.22-16s-20.21,4.81-20.21,16,9.05,18,20.21,18S383.23,253.12,383.23,242Z"/><path class="cls-7" d="M262.15,365.21h0c.67.05,23.79,1.75,37.4,0l.88.11c13.81,1.76,37.42,0,37.42,0"/><path class="cls-7" d="M160.11,358.36c2.55,41,7.1,81,10.95,110.38"/><path class="cls-7" d="M375.8,94.08c4.44-7.24,7.43-12.44,7.43-12.44s-17.94-24.16-74.88-22.18C82.17,67.38,74.19,287.18,95.7,496.74c.51,4.94,13.64,8.84,29.25,11.75"/><path class="cls-7" d="M125,508.49c23.55,4.39,52.78,6.51,52.78,6.51s-3-18.27-6.67-46.26"/><path class="cls-7" d="M160.11,358.36c-4.37-69.74-3-142.14,17.62-169,41.56-47.37,155.55-47.82,164.59-51.67,7.88-3.34,24-28.14,33.48-43.61"/><path class="cls-7" d="M421,464.44c-1.23,16.74-2.94,33.64-5.19,50.56,21.14,4.41,44.58,4.58,65.3,1.37"/><path class="cls-7" d="M423.16,370.09c-2.89-118.65-26-211.66-39-215.28,0,0-25.89-10.29-27.84-19.09.19-2.29,12.92-24.49,22.77-40"/><path class="cls-7" d="M481.06,516.37c2.63-.4,5.23-.85,7.76-1.37C518.15,391.79,520.11,104.94,387,84c-2,2.7-4.85,6.9-7.93,11.75"/><path class="cls-7" d="M421,464.44c2.37-32.4,2.94-64.2,2.21-94.35"/><path class="cls-7" d="M201.92,239a7.39,7.39,0,0,0,.8.53,6.42,6.42,0,0,0,1.77.62l6,1.54"/><path class="cls-7" d="M204.36,234.78a5.63,5.63,0,0,1,2.47,1.84q2,2.08,3.91,4.19"/><path class="cls-7" d="M210.71,242.11a11.06,11.06,0,0,0-3.26,1.12c-.93.5-1.8,1.13-2.78,1.54a3.91,3.91,0,0,1-3,.22"/><path class="cls-7" d="M383.39,243.33a28.92,28.92,0,0,1,6.6-1.24"/><path class="cls-7" d="M389,246.78a14.35,14.35,0,0,1-5.39-2.67"/><path class="cls-7" d="M383.81,242.17l3-2.66a3.75,3.75,0,0,1,1.55-.95"/><path class="cls-7" d="M373.53,357.56c-7.5-20.37-29.33-28.23-29.33-28.23"/><path class="cls-7" d="M253.3,329.33s-21.84,7.86-29.34,28.23"/><path class="cls-7" d="M402,215.46c-1.65-5.82-56.24-17-77.9,10.75"/><path class="cls-7" d="M192,215.46c1.66-5.82,56.24-17,77.9,10.75"/><path class="cls-7" d="M371.38,242.47a8.37,8.37,0,1,0-8.37,8.37A8.36,8.36,0,0,0,371.38,242.47Z"/><path class="cls-7" d="M223,241.68a7.93,7.93,0,1,0,7.93-7.93A7.94,7.94,0,0,0,223,241.68Z"/><path class="cls-7" d="M312.14,422.43c-16.3,13-30.64,0-30.64,0"/><path class="cls-7" d="M484.52,521.43c-.07-.11-.14-.21-.19-.3-1.09-1.63-2.15-3.21-3.27-4.76"/><path class="cls-7" d="M125,508.49A134.51,134.51,0,0,0,116.78,522v0"/><path class="cls-7" d="M237.78,441.55c-16.28,6-35.46,13.95-59.55,23.95q-3.71,1.54-7.17,3.24"/><path class="cls-7" d="M337.47,433.72c6.48,1.8,13.41,4,21,6.61,14.45,5,31.22,11.42,51.7,19.3A98.2,98.2,0,0,1,421,464.44"/><path class="cls-7" d="M237.78,441.55c7.35-2.71,14.12-5,20.45-6.94"/><path class="cls-7" d="M262.15,433.48c-1.29.36-2.6.74-3.92,1.13"/><path class="cls-7" d="M332.45,432.38c1.64.41,3.33.86,5,1.34"/><path class="cls-7" d="M358,441.55s-24.36,25.32-63.28,25.33-56.89-25.25-57-25.33"/><path class="cls-8" d="M292,260S289.85,299,277.51,308.1c-9.86,7.32-6.87,24.17,4.93,20.4,5.48-4.22,7.77-4.63,12.13-.53.67.64,2.56.9,3.49.88a5.92,5.92,0,0,0,2.88-.68c4.59-4.25,7.08-3.58,12.63.7,12.54,3.16,15-15.55,4.93-20.68-13.69-7-14.48-48.08-14.48-48.08"/><path class="cls-9" d="M292,254.64s-2.3,38.74-14.49,48.09c-8.75,6.71-5.66,23.68,4.94,20.4,5.48-4.22,7.82-4.68,12.18-.58a6,6,0,0,0,3.43.92,6,6,0,0,0,2.91-.85c4.58-4.25,7.05-3.4,12.61.88,11.42,2.76,12.38-15.73,4.93-20.68-12.79-8.5-14.49-48.08-14.49-48.08"/></svg>