<svg id="Camada_1" data-name="Camada 1" xmlns="http://www.w3.org/2000/svg" viewBox="0 0 1000 605"><defs><style>.cls-1{fill:#c7b299;}.cls-2{fill:#8c6239;}.cls-3{fill:#767d81;}.cls-4{fill:#969699;}.cls-5{fill:#acada8;}.cls-13,.cls-6{fill:#d8d8da;}.cls-7{fill:#2e2e2e;}.cls-8{fill:red;}.cls-9{fill:#c1272d;}.cls-10{fill:#fefefe;}.cls-11{fill:#603813;}.cls-12{fill:#673a00;}.cls-13,.cls-14,.cls-15,.cls-16,.cls-17,.cls-18{stroke:#000;stroke-miterlimit:10;stroke-width:0.5px;}.cls-14{fill:#c7ffd6;}.cls-15{fill:#fff988;}.cls-16{fill:#c3f2ff;}.cls-17{fill:#ff987f;}.cls-18{fill:#f8ceff;}.cls-19{opacity:0.2;}</style></defs><ellipse class="cls-1" cx="497" cy="539.78" rx="483" ry="45.22"/><rect class="cls-2" x="381.22" y="114.66" width="195.37" height="39.8" rx="11"/><rect class="cls-2" x="399.53" y="351.27" width="27.13" height="166.81" transform="translate(48.82 -41.66) rotate(6.14)"/><rect class="cls-2" x="536.47" y="349.49" width="27.13" height="168.6" transform="translate(-45.98 65.71) rotate(-6.56)"/><rect class="cls-2" x="375.8" y="331.74" width="208.03" height="23.52"/><ellipse class="cls-2" cx="429.16" cy="243.1" rx="9.95" ry="88.64"/><ellipse class="cls-2" cx="532.28" cy="243.1" rx="9.95" ry="88.64"/><ellipse class="cls-2" cx="497.9" cy="243.1" rx="9.95" ry="88.64"/><ellipse class="cls-2" cx="463.53" cy="243.1" rx="9.95" ry="88.64"/><path class="cls-3" d="M642.12,196a30.93,30.93,0,0,0,9,.14q58.26.12,116.5.33c2,0,4.88-1.5,5.8,2l-27.51.08c-34.26-.31-68.54.28-102.8-1-14-.54-27.94-.07-41.92-.17-1.76,0-4.08,1.08-5.13-1.57Z"/><path class="cls-4" d="M732.81,186.71h9.86c6.15,2.73,12.6.63,18.89,1.06,3,.2,5.16.64,5.75,4.35H749.09c4.88,1.86,10.3-.36,16.41,3.31H735.87c-2.11,0-3.72-.47-2.57-3.12.53-1.23.32-2-1-2.47Z"/><path class="cls-5" d="M678.63,176.91c0-1.07,0-2.14,0-3.21,5.52.44,8.17,2.29,6.75,4.83.77,1.07,1.89.31,2.82.47a5.54,5.54,0,0,1,2.45.63c-3.12,0-6.68,2.38-9.1-2C681.23,177,679.64,177.13,678.63,176.91Z"/><path class="cls-5" d="M702.76,184.5l-9.75.38C695.15,181.37,699.69,181.2,702.76,184.5Z"/><path class="cls-5" d="M695.62,179.82c-1.32,0-1.4-.75-1.33-1.48a1.29,1.29,0,0,1,1.46-1.18c.89,0,1.33.59,1,1.35C696.56,179.08,695.93,179.49,695.62,179.82Z"/><path class="cls-4" d="M808.23,183.67l2.49.17C809.75,185.9,808.92,185.74,808.23,183.67Z"/><path class="cls-4" d="M488,187.69c4.52,2.25,9.53.26,15,1.72-6.54,1.15-13.47-1.1-17,5.82l-5.56-.08c.11-1.45.22-2.89.34-4.34,1.91,0,3.89.59,5.62-.58,2-1.4-5.4-4.13.76-4.87l-.05.14A2.06,2.06,0,0,0,488,187.69Z"/><path class="cls-5" d="M478.53,190.72c-9,.4-17.92-1.78-27-1.93,6.91,0,13.83-.23,20.72.14,2.08.12,4.13-2.15,6.15,0Z"/><path class="cls-4" d="M481.5,185.51c1.8,1.44.76,1.92-.76,2.25C480.69,186.91,480.64,186.05,481.5,185.51Z"/><path class="cls-4" d="M478.53,190.72l-.09-1.83,2-.32c.08.73.17,1.46.25,2.19Z"/><path class="cls-4" d="M448.31,188.52l-.41-.15a2.45,2.45,0,0,1,.47-.38c.05,0,.21.19.31.29Z"/><path class="cls-5" d="M486.31,177.76c.82,1.1.49,2.36.49,3.58C485.47,180.31,484.2,179.27,486.31,177.76Z"/><path class="cls-6" d="M494.64,51.83c3.89-.53,8,1.45,11.78-1.9.81-.73,4.32,2.29,6.5,2.15,3.06-.19,5.86,1.15,9.33,0s7.82-2.37,11.85.62c1.48,1.11,4.48.68,6.59-.92,1.51-1.14,3.25-1.7,4.6.42-.66,1.52-3-.14-3.69,1.72,4.79,1,9.09-1,13.55-1l18.34,0a1.87,1.87,0,0,1,.94,2.08c-1.68,2.08-4,1.15-6,1.17-14.12.09-28.25,0-42.37,0a3.27,3.27,0,0,0,2.35,1.55c16.61,1.09,33.29-.2,49.89,1.52.87.1,2,0,2-1.13.06-1-.79-1.49-1.72-1.8s-2-.77-3-1.17c.72-4.46,4.25-1.38,6.27-2.34,2.92,3.82,7.68,2.72,11.45,4.29.6,1.11,1.2,2.21,2.72,2.21h25.64c-7.75-3.5-15.9-1.18-23.77-2.41-.88-5-5.45-5.62-8.95-7.51l3.9,0,5.24-.63c1.58.85,3.23.5,4.88.28l1.5,5c-1.19.28-2.66-.48-4.27,1.9,1.92-1.19,3.36-.55,4.26-1.9,6-2.59,12.16,1.21,18.23-.16,2.79,1.48,1.45,8.64,7.59,5.53,2.17,1,4.5,1,6.83,1h45.16c4,1.5,8,1.36,12.56.08-3.3-2.59-7.71,1.21-9.43-3.45,1.47.22,3,.48,4.35-.3,2.93-.2,5.85-.5,8.77-.56,1.69,0,3.11,0,3.14-2.24,1.5.92,2.71,2.34,4.76,2.2,8.29-.58,16.41.75,24.5,2.27,1.7,1.45,2.72,1.09,3-1.14,1.77-1.84,3.63.5,5.43-.12,7.64-.38,15.21.49,22.79,1.24l.39-.09c3.76,2.12,9.61-.38,11.77,5.31,2.6-1.07,4.36,3.17,7.11,1.11.18,0,.47,0,.51.12,2.37,5.75,5.63,10.14,12.88,9,.76-.11,1.52,1,1.54,2,0,1.4-1,1.76-2.16,1.82a12.3,12.3,0,0,0-9.59,5.24V97.15l-.06,3.28c-1-.19-2.07-.35-3.1-.56-6-1.19-6.4-.77-6.59,5.22-.13,4.21-.57,8.4-.87,12.59.07,1.91-.77,4,1,5.59,0,17.73,0,35.47-.22,53.2,0,3.83,1.25,4.95,5,4.86,9.13-.24,18.27-.13,27.4-.16-.23,1.09-.1,2,1.07,2.5.69,2.07,1.52,2.23,2.49.17,4.16-1,8.76,1.56,12.67-1.54,12.31-3.26,23.5-.16,34,6.31,3.77,2.33,8.84,2.53,11.39,6.87-1.51,1.39-3.51.5-5.2,1.09-18.32-.09-36.64-.27-55-.22-6.44,0-12.91-.75-19.32.57-5.18,1.68-10.59.92-15.88,1.54-.92-3.51-3.82-2-5.8-2q-58.24-.28-116.5-.33c-.49-2.73-1.4-5.46-1.41-8.2,0-16.22-.6-32.49.49-48.65.58-8.6-4.13-14.35-7.2-21.11a8.65,8.65,0,0,0-3.39-3.34c-8.05-5-16.89-6.94-26.35-7-8.21,0-16.5-.09-24.59-1.27A254.61,254.61,0,0,0,539,103.77c-4.42.22-10-.47-12.07,5.59-1.55,1.18-3,2.48-4.66,3.51-6,3.76-7.19,9.91-8.13,16.16-.18,1.19-.41,2.81.84,3.48,6.22,3.33,3.08,8.2,1.88,12.43-1.69,6-5.75,8.58-11.72,7.07-5.2-1.31-10.3-.77-15.45-.92-2.46-3.26-5.67-.86-8.52-1.13l-2.7,0c-.32-15.79-1.69-31.56-1-47.37l2.69.23v2.56c-1.71,3.16-1,13,1.41,15.22,1.46,1.32,1.74,2.81,2.42,4.44,2.58,6.2,1.91,13,3.43,20.21,2-5.15-1.72-10.35,3-13.93,1.42,0,4.15,2.48,3.88-.87-.53-6.36,2.68-6.35,7.19-5.38.5.11,1.18-.56,1.78-.86,2.46.09,4.79-.21,6.53-2.23l1.09-1c2.45-2.27,2.44-4.84.94-7.6-.16-.55-.31-1.09-.47-1.63l-.78-1.08c-2.59-3-6-2.38-9.37-2.16,0-1-.52-2-1.51-1.34-3.74,2.49-7.87,4.46-10.89,7.94-.94,0-1.95-.68-2.79.3l.05,0c.67-3-1.91-2.11-3.25-2.71-.12-1.63-.23-3.26-.35-4.9.62-2-1.26-4.42.84-6.2,1,3.21,3.55,5.23,6.27,4.84,3-.43,1.48-3.85,1.83-6a31.08,31.08,0,0,0,.22-3.21c1.6-.23,1.6-1.49,2-2.71,2.25-6.76-.74-13.44-.15-20.16.26-3.07.55-5.85,5-4.42,1.53.49,3.61.76,4.78-1.25,1.05.38,2.05.86,1.92,2.2-.4,4.16.91,8.12,1.37,12.18,0,.78-.27,1.87,1,1.81s1-1,.86-1.88c.39-5.68-1.84-11.47.74-17.05l1.62-.08V84.17c1.87-7.3.2-15.28,5.88-21.48,2.18-1.72,1.81-4.08,1.6-6.41,1.24-.09,2.43,1.86,3.9-.06a8,8,0,0,0-8-.29c-.39,1.19-.6,2.77-2.42,1.46-1.56-1.12-3.13-1.71-5-.75L499,58.17C496.16,57,493.61,55.62,494.64,51.83Zm11.48,89c-1.15,2.36-2.3,4.72-3.43,7.08-.31.64-.57,1.33.21,1.83a1.4,1.4,0,0,0,2.18-.64c1.11-2.57,2.06-5.2,3.08-7.81,1.71-2.75,2-6.17,5.06-9.23C507.38,133.15,507.6,137.63,506.12,140.82Zm181.49,28.52c1.46.3,3.18-.39,4.34,1.1-1.75,1.63-1.48,2.82.89,3.14,1.73.23,3.52,0,5.28.07,3.52.15,3.93-1.48,2.51-4.23,1.22-.44,3.06.75,3.67-1.11.34-1.07-.91-1.43-1.71-1.59-4.62-.89-9.39.12-14-1-.74-.18-.68,1.78-.87,2.79-2.19-3.12-4.43-3.17-6.75-.79.72,3.2,4.55,0,4.86,3.43.18,2,2.22,2.92,3.42,1.84C691.23,171.13,688.25,170.55,687.61,169.34Zm58.43-54c2.79-.12,7,2,6.23-3.84-.61-4.71-4.09-1.73-6.23-2.34-2.61-1.49-5.49-2.18-8.09-.55-1.64,1-1.21,3.49-.71,5C739,119.1,742.88,115.8,746,115.31ZM496.8,98.24c.14-2.87,2.35-2.29,4-2.18,7.13.5,14.37-1.3,22.64,2.15-1.48-1.72-1.86-2.61-2.36-2.68-7.84-1.16-15.72-.54-23.58-.36-2.13,0-1.86,1.72-.69,3.08,1.19,5,6.27-.1,8.22,3.19-1.74,2.48-4.8-.32-6.83,1.82,3.18,2.87,6.91,1.11,10.27,1.43,2.28.23,4.51-.44,4.36-3.39-.13-2.5-2-3.09-4.21-3.08C504.66,98.24,500.73,98.24,496.8,98.24Zm237.35,4.29h7.37c-6.77.37-6.73-3.8-6.56-8.73.3-8.94.14-17.9.12-26.85,0-1.63.51-3.46-2.26-4.77v40.25c-2.1,1.46-2.79,3.48-2.78,6,0,10.37.06,20.74-.23,31.1a6.78,6.78,0,0,0,3.15,6.14c-.32,2.26,0,3.82,2.95,3.48a21.22,21.22,0,0,1,4.74.39c2.24.24,2.34,1.85,2.09,3.52-.36,2.29-1.84.77-2.83.71-1.94-.12-3.88-.33-5.82-.51-5.46-1.15-11-1.2-16.53-1.26-14.73-.15-29.53.36-43.88-4.07a4.29,4.29,0,0,0-4.56.85c-3.63,3.91-4.5-.11-5.18-2.15-1-2.95-1.14-6.18-1.65-9.29a124.52,124.52,0,0,0-.5,13.48c0,1.71.16,3.21,2.44,3.39,3.19.25,6.36.86,9.56,1q29.46,1.25,58.92,2.35c.74,2-.93,3.54-1.08,5.37-4.5.94-8.93,2.49-13.61,2.09-2.58-.23-4.17,1.34-3.84,3.28.82,4.78-2.21,8.89-1.72,13.51s-1.61,5.79-5.72,4.17c-1.32-.51-2.65-1-4-1.49-3.07-3.3-7.61-3.13-9.75.38-2.64,1.49-5.51.64-8.26.69-7.56.16-8.16-.79-6.12-8.66,1,.22,2.6.12,2.94.72,2.42,4.38,6,2,9.1,2a5.54,5.54,0,0,0-2.45-.63c-.93-.16-2.05.6-2.82-.47,1.42-2.54-1.23-4.39-6.75-4.83a65.59,65.59,0,0,1-5.32-5.08c-1.06-1.25-1.67-2.8-3.72-2.35s-2.81,2.22-3.22,3.93a16.59,16.59,0,0,0,.08,7.45c.54,2.44.93,4.9,1.42,7.34.26,1.33.25,2.78-1.21,3.13-2.08.49-1.72-1.39-1.67-2.46.23-5.08-.92-9.94-2.19-14.78-.39-1.45,1.24-4.17-1.76-4.1-2,.05-3.37,1.53-3.65,3.94a77.3,77.3,0,0,1-2,11.55c-2.07,7.51-1.42,8.5,6.21,8.66,21.5.46,43-.8,64.51.57,1.81.12,4.54.33,6.19-1.66,1.32.43,1.53,1.24,1,2.47-1.15,2.65.46,3.12,2.57,3.12H765.5c-6.11-3.67-11.53-1.45-16.41-3.31h18.22c-.59-3.71-2.74-4.15-5.75-4.35-6.29-.43-12.74,1.67-18.89-1.06,2.67-.58,2.37-2.71,2.4-4.65.17-10.33.26-20.66.54-31,.07-2.55-.57-4.41-2.91-5.54,6-2.21,12.72.6,18.73-1.67l-.09-1.62H734.09ZM719.8,135.67c4.55-1.42,5.73-5.19,4.38-13.22-1-6.27-6-2.33-9.86-4.44,4.2,6.79,2.73,12.33-.24,17.77-4-1.55-8.19-2.55-11.33-5.7,3,.47,5.25-.65,4.86-3.74-.41-3.25-2.83-4.2-5.89-2.61.15-3.93,3.74-6.84,3.16-11.09a24.63,24.63,0,0,0-13,1.32c-6.41,2.39-12.87,11.24-11.27,15.92,3.6,10.51,11.44,14.55,19.73,13,6.23-1.16,11.32-6.34,18.26-5.12C719.45,137.91,719.75,136.6,719.8,135.67Zm29.91-8.47v0a34.09,34.09,0,0,1,4.29,0c3.15.39,3.74-1,4-4,.31-4.1-1.1-5.45-5-5a33.14,33.14,0,0,1-7,0c-3.48-.35-4.6.83-4.6,4.45s1.06,4.92,4.57,4.47A29.44,29.44,0,0,1,749.71,127.2Zm11.75,2.25c-4.22,0-8.21,0-12.21,0-2.29,0-2.49,1.66-2.36,3.34.11,1.46-.52,4.22,1.44,3.89,3.45-.56,6.63.94,10,.41,1.1-.17,2.37-.21,1.76-1.75C759.2,133.2,761.26,131.85,761.46,129.45ZM709.59,82.52c-2-1.6-2.66-5.09-4.72-4.36-2.34.82-1,4-1.18,6.18-.1.91-.51,2.18.85,2.71,2.37-.48.32-3.24,2-4.12,1.16,1.35,2.12,2.63,3.25,3.74.87.85,2.22,1.09,2.34-.44.21-2.73,1.14-5.67-.67-8.38C709.49,79.09,710.83,81.09,709.59,82.52Zm-11.9,3.8c-2.48-1.79-5.82,0-6.07-3.67s3.45-3,5.7-4.74c-3.16-.59-5.72-.94-7.26,1.65a5,5,0,0,0,.38,6C692.21,87.61,694.47,87.89,697.69,86.32Zm-15.89-8.6c-2.19.21-4.85-1.23-6,.84a7.71,7.71,0,0,0,0,6.7c1,2,3,1.45,5.76.38-7.88.84.63-5-3.43-5.57C678.49,78,680.78,79.75,681.8,77.72Zm6.68,8.55c-5.33-1-1.51-6.23-4.13-8.67C681.86,84.67,682.55,86.23,688.48,86.27Zm12.44-8.21c-1.71,2.92-1.76,5.87-.32,10.32A15.18,15.18,0,0,0,700.92,78.06Zm-5.3,101.76c.31-.33.94-.74,1.16-1.31.3-.76-.14-1.35-1-1.35a1.29,1.29,0,0,0-1.46,1.18C694.22,179.07,694.3,179.77,695.62,179.82Zm15.56-64.24c-.62-.44-1-.89-1.35-.89s-.78.43-1.17.67c.32.31.62.82,1,.88S710.46,115.92,711.18,115.58Zm-208.75-9.32.3.17,0-.26Z"/><path class="cls-7" d="M762.19,58.44c-7.58-.75-15.15-1.62-22.79-1.24q-.1-3.23-.2-6.45a11,11,0,0,0,.13-5.37c.37-6.33.72-12.67,1.12-19,.11-1.84-.59-4,1.85-5,2.85.13,5.73.62,8.53.32,5.43-.59,6.87,2.27,6.84,6.91,0,5.18-.33,10.4.11,15.55S757.88,54.56,762.19,58.44Z"/><path class="cls-5" d="M494.64,51.83c-1,3.79,1.52,5.15,4.32,6.34-3.48,4.78-2.93,6.63,2.71,8.69a2.08,2.08,0,0,1,1.59,1.84c-1.17,2-3.25,1.74-4.78,1.25-4.46-1.43-4.75,1.35-5,4.42-.59,6.72,2.4,13.4.15,20.16-.4,1.22-.4,2.48-2,2.71-2.86-1.82-3.6-4.48-3.66-7.75s1-6.39-.6-9.43c-.1-5.92,0-11.84-.34-17.75-.22-4.21,1.16-8.57-1-12.62l-.31.23c.34-1.55.56-3-1.58-3.43,0-2.25,0-4.51,0-6.76,3.41,1.52,1,5.82,4,7.89V39l1.1-.05a1.6,1.6,0,0,0,2.09.84c.2-.06.3-.42.45-.64l-2.4-.36c4-2.11,5.61.21,5.86,3.64C495.4,45.55,494.85,48.7,494.64,51.83Z"/><path class="cls-3" d="M762.19,58.44c-4.31-3.88-4-9.3-4.41-14.3s-.15-10.37-.11-15.55c0-4.64-1.41-7.5-6.84-6.91-2.8.3-5.68-.19-8.53-.32,5.17-3.07,11-1.39,16.43-2.09a19.75,19.75,0,0,0,10.34-.66c1.06,0,2.23-.2,2.72,1.17-2.55,1.65-5.4,3.09-4.39,7,2.45,9.5,1,19.37,2.71,29,.27,1.54-.89,2.35-2.21,2.5a52.35,52.35,0,0,1-5.32.13Z"/><path class="cls-7" d="M762.58,58.35a52.35,52.35,0,0,0,5.32-.13c1.32-.15,2.48-1,2.21-2.5-1.69-9.58-.26-19.45-2.71-28.95-1-3.9,1.84-5.34,4.39-7,2.42-.3,4,.16,4.4,3.13,1.67,14,3.5,27.91,5.27,41.86-2.75,2.06-4.51-2.18-7.11-1.11C772.19,58,766.34,60.47,762.58,58.35Z"/><path class="cls-8" d="M689.77,56.79c-1.4.78-2.88.52-4.35.3a2,2,0,0,0-2.38-.71l-.95-.56c.65-1.39,3.55-.4,3.11-2.87-.3-1.74-1.78-1.8-3.17-2.21-2.77-.82-4.9-2.38-4.81-6.41,2.73,2.46,4.78,3.15,5.06-1.07.07-.17.15-.34.22-.52l-.3.44c-4.14-2.56-1.63-7.08-3-10.52-1.25-3.1-1.45-6.11-6.28-5.14a8.07,8.07,0,0,1-7-1.59c3.09-3.39,7.5-2.66,11.35-3.43,2.85-.56,3.71-1.48,2.7-4.38,1.86,4.38,5.62,4.42,9.41,4.45,3.09,0,6.13.25,7.76,3.53-7-1.77-8,4.08-10.21,8.3,1.33.33,2.89.7,4.45,1.11,1.9.49,1.71,2.09,1.71,3.48,0,1.22,0,3.24-1.49,2.94-5.41-1.1-6.29,3.74-9.64,6.41,2.33.61,4.18.77,5.7,1.57C690.5,51.4,692.29,53.51,689.77,56.79Z"/><path class="cls-9" d="M665.92,25.93a8.07,8.07,0,0,0,7,1.59c4.83-1,5,2,6.28,5.14,1.39,3.44-1.12,8,3,10.52l.08.08c-.28,4.22-2.33,3.53-5.06,1.07-.09,4,2,5.59,4.81,6.41,1.39.41,2.87.47,3.17,2.21.44,2.47-2.46,1.48-3.11,2.87l-5.19,0a47.09,47.09,0,0,1-3.15-11.18c-.18-1.31-1.08-1.68-2.31-1.33-1.44-.66-2.86,2.74-4.31,0-3.31,0-2.08,2.53-2.32,4.16-.32,2.17.29,4.87-3.32,4.63,0-.44,0-.88,0-1.32s0-.81,0-1.21q.06-3.21.11-6.4a43.94,43.94,0,0,0,.12-11.85C661.37,28.23,662.45,26.15,665.92,25.93Z"/><path class="cls-9" d="M689.77,56.79c2.52-3.28.73-5.39-2.11-6.88-1.52-.8-3.37-1-5.7-1.57,3.35-2.67,4.23-7.51,9.64-6.41,1.5.3,1.5-1.72,1.49-2.94,0-1.39.19-3-1.71-3.48-1.56-.41-3.12-.78-4.45-1.11,2.16-4.22,3.19-10.07,10.21-8.3,2.45,6.24,1.88,13,3.27,19.4.61,2.79.86,5.66,1.27,8.49,0,2.19-1.45,2.21-3.14,2.24C695.62,56.29,692.7,56.59,689.77,56.79Z"/><path class="cls-6" d="M476.74,149.55c-4.16,1.11-6.33-.47-5.76-4.77.83-6.34-3.83-12.32-1-18.72,1.94-4.61.71-9.41.81-14.12.08-3.44-2.09-6.85-.14-10.33,5.42.58,5.93,3.93,5.85,8.67C476.22,123.36,476.6,136.46,476.74,149.55Z"/><path class="cls-3" d="M481.5,185.51c.64-1.34,1.57-2.63.81-4.24-1.51-10.4.68-20.93-1.13-31.31,2.85.27,6.06-2.13,8.52,1.13.11.88,1.83,1.06.72,2.58-3.44,4.72-2.82,10.48-2.05,15.51.56,3.68-.06,6-2.06,8.58-2.11,1.51-.84,2.55.49,3.58l.2-.05c.07,1.35.13,2.71.19,4.07-6.16.74,1.25,3.47-.76,4.87-1.73,1.17-3.71.54-5.62.58l-.11-.05c-.08-.73-.17-1.46-.25-2.19a2.13,2.13,0,0,1,.29-.81C482.26,187.43,483.3,187,481.5,185.51Zm4.28-30.13-.53.17v18.88h.53Z"/><path class="cls-4" d="M480.14,102.84l-2.69-.23c-.73-1.88-1.45-3.76-2.18-5.65l.33,0,.28.18c2.2-1,1.42-3.08,1.44-4.73q.15-15.54.09-31.09c0-1.7.66-3.62-1-5-.06-1.17-.12-2.34-.19-3.52l2.35-.1c2.63,7.38,1.53,15.09,2.12,22.66.52,6.6-.05,13.47,3.13,19.67l.4,1.77c-2.44.39-6.17-.23-3.31,4.32C481.12,101.37,480.42,102.24,480.14,102.84Z"/><path class="cls-5" d="M661.49,52.16c3.61.24,3-2.46,3.32-4.63.24-1.63-1-4.21,2.33-4.16,0,3,0,6.05,0,9.07,0,1.73.88,2.69,2.63,2.56a1.88,1.88,0,0,0,1.64-2.74c-1.22-3,.17-5.95.06-8.91,1.23-.35,2.13,0,2.31,1.33a47.09,47.09,0,0,0,3.15,11.18c1.86,2.38,4,1.66,6.14.52a2,2,0,0,1,2.38.71c1.72,4.66,6.13.86,9.43,3.45-4.57,1.28-8.52,1.42-12.56-.08C676.86,57.57,671,57.19,665,57.22c-.94-1.81-3.45-.45-4.42-2.2Z"/><path class="cls-5" d="M483.83,95c-3.18-6.2-2.61-13.07-3.13-19.67-.59-7.57.51-15.28-2.12-22.66l1.64.13a5.16,5.16,0,0,1,3.63.19c.47.92,1.54,2,1.32,2.74-3,9.18-.61,18.57-1.32,27.82.11,1.18.1,2.41,1.28,3.17C484.14,89.36,485.87,92.46,483.83,95Zm-1.76-39.13-.14.38.55.06a1.24,1.24,0,0,0-.09-.4C482.34,55.82,482.18,55.85,482.07,55.84Z"/><path class="cls-6" d="M475.87,97.12l-.27-.18-.33,0a5.45,5.45,0,0,0-4.44,1.19c-1.9-2.71-.54-5.78-1-8.65-.62-3.91,1.21-8-1.11-11.79a7.78,7.78,0,0,1,1-5.17c1.22-.55,2.46-4.13,3.42.55.87,4.23-.52,8.92,2.41,12.74A37.51,37.51,0,0,1,475.87,97.12Z"/><path class="cls-5" d="M475.55,85.82c-2.93-3.81-1.54-8.5-2.41-12.73-1-4.68-2.2-1.1-3.42-.55A80.42,80.42,0,0,1,472,56.12c1.31.63,2.6,1.37,4.16,1q-.09,4.52-.16,9c-.71.53-.7,1.06,0,1.58L476,79.07c-1.35,1.35-.53,3.08-.82,4.62Z"/><path class="cls-3" d="M555.15,52.88c-4.46,0-8.76,2-13.55,1,.72-1.86,3-.2,3.69-1.72,2.39-.93,1.9-3.07,2.05-4.94A4.94,4.94,0,0,1,551,42.58c2.9-1,4.34-.54,4.1,2.9C554.92,47.93,555.12,50.41,555.15,52.88Z"/><path class="cls-5" d="M468.73,77.71c2.32,3.74.49,7.88,1.11,11.79.45,2.87-.91,5.94,1,8.65-.07,1.15-.15,2.3-.22,3.46-1.95,3.48.22,6.89.14,10.33-.1,4.71,1.13,9.51-.81,14.12-.83-12.42-2.71-24.76-2.31-37.28A87,87,0,0,1,468.73,77.71Z"/><path class="cls-6" d="M660.56,55c1,1.75,3.48.39,4.42,2.2-7.05,2.31-14.25,1.24-21.34.54-4.46-.44-8.76-.75-13.06.6-.92-1.1-1.29-2.2,0-3.31Z"/><path class="cls-3" d="M470.61,101.61c.07-1.16.15-2.31.22-3.46A5.45,5.45,0,0,1,475.27,97c.73,1.89,1.45,3.77,2.18,5.65-.66,15.81.71,31.58,1,47.37l-1.74-.43c-.14-13.09-.52-26.19-.28-39.27C476.54,105.54,476,102.19,470.61,101.61Z"/><path class="cls-3" d="M574.43,55a1.87,1.87,0,0,0-.94-2.08c1.39-3.82,3.51-6.63,8.13-6.53,3.59.07,7.18-.13,10.77-.21l.48,3.27-3.9,0-2.47.12-4.53.23a1.71,1.71,0,0,0-.13-.47c-.05-.08-.22-.08-.34-.12l.52.54-.15,3.19v-.06c-2,1-5.55-2.12-6.27,2.34Zm2.84-3.56-.21-.19,0,.29Z"/><path class="cls-7" d="M483.85,53a5.16,5.16,0,0,0-3.63-.19c.41-6.25,3.14-12.4.78-18.81-.19-.53,1.1-.47,1.76-.43.43,2.07.85,4.13,1.28,6.2,0,2.25,0,4.51,0,6.76-2.22,2.4-1.68,3.54,1.58,3.43l.31-.23C486,51.22,486.38,53.05,483.85,53Z"/><path class="cls-3" d="M484,39.73c-.43-2.07-.85-4.13-1.28-6.2.88-.92,2-.49,3.05-.56,4.14-.24,5.76.77,2.3,4.47-.27.29,0,1.05,0,1.58v8.6C485.08,45.55,487.45,41.25,484,39.73Z"/><path class="cls-3" d="M630.57,55.05c-1.28,1.11-.91,2.21,0,3.31-.1.37-.19.73-.28,1.1-6.14,3.11-4.8-4.05-7.59-5.53A6.25,6.25,0,0,1,630.57,55.05Z"/><path class="cls-5" d="M769.07,18.61a19.75,19.75,0,0,1-10.34.66l-.66-7.78c1.3-.15,2.31.34,2.48,1.1.81,3.83,2.29,6.2,6.78,4.29C768.07,16.57,768.73,17.76,769.07,18.61Z"/><path class="cls-3" d="M603,49.1c-1.65.22-3.3.57-4.88-.28V46.41c1.34-.31,2.69-.56,4-.94s2.47-.52,3,1C605.81,48.42,604.51,48.88,603,49.1Z"/><path class="cls-7" d="M598.12,46.41v2.41l-5.24.63-.48-3.27c.56-1.29-.89-3.45,1.33-3.94,2.38-.53,2.18,1.48,2.4,3C596.28,46.39,597.35,46.18,598.12,46.41Z"/><path class="cls-6" d="M476.11,57.11c-1.56.38-2.85-.36-4.16-1,.23-2.65.48-5.27,4.28-3.38.07,1.18.13,2.35.19,3.52A6.66,6.66,0,0,0,476.11,57.11Z"/><path class="cls-5" d="M661.69,31.38a43.94,43.94,0,0,1-.12,11.85A22.48,22.48,0,0,1,661.69,31.38Z"/><path class="cls-6" d="M739.33,45.38a11,11,0,0,1-.13,5.37A4,4,0,0,1,739.33,45.38Z"/><path class="cls-5" d="M734,57.32c-.31,2.23-1.33,2.59-3,1.14C731.82,57.73,732.68,57,734,57.32Z"/><path class="cls-5" d="M661.46,49.63c0,.4,0,.8,0,1.21C660.75,50.43,660.75,50,661.46,49.63Z"/><path class="cls-5" d="M642.28,181.19c-.74-15.05-1.23-30.11-2.31-45.13-.88-12.29-11.26-21.86-23.39-22.76-20.73-1.54-41.49-2.53-62.25-3.52-9.15-.43-18.24-1.13-27.39-.43,2-6,7.65-5.36,12.07-5.58a254.61,254.61,0,0,1,49.62,2.82c8.09,1.18,16.38,1.25,24.59,1.27,9.46,0,18.3,1.94,26.35,7a8.65,8.65,0,0,1,3.39,3.34c3.07,6.76,7.78,12.51,7.2,21.11-1.09,16.16-.54,32.43-.49,48.65,0,2.74.92,5.47,1.41,8.2a31.28,31.28,0,0,1-9-.13Q642.19,188.6,642.28,181.19Z"/><path class="cls-6" d="M678.63,176.91c-2,7.87-1.44,8.82,6.12,8.66,2.75,0,5.62.8,8.26-.69l9.75-.38c1.33.5,2.66,1,4,1.49,4.11,1.62,6.21.49,5.72-4.17s2.54-8.73,1.72-13.51c-.33-1.94,1.26-3.51,3.84-3.28,4.68.4,9.11-1.15,13.61-2.09,2,7.84.63,15.85,1.18,23.77l-.51,3.13c-1.65,2-4.38,1.78-6.19,1.66-21.5-1.37-43-.11-64.51-.57-7.63-.16-8.28-1.15-6.21-8.66a77.3,77.3,0,0,0,2-11.55c.28-2.41,1.64-3.89,3.65-3.94,3-.07,1.37,2.65,1.76,4.1,1.27,4.84,2.42,9.7,2.19,14.78,0,1.07-.41,3,1.67,2.46,1.46-.35,1.47-1.8,1.21-3.13-.49-2.44-.88-4.9-1.42-7.34a16.59,16.59,0,0,1-.08-7.45c.41-1.71,1.1-3.47,3.22-3.93s2.66,1.1,3.72,2.35a65.59,65.59,0,0,0,5.32,5.08C678.65,174.77,678.64,175.84,678.63,176.91Z"/><path class="cls-5" d="M702.75,130.08c3.14,3.15,7.37,4.15,11.32,5.7l5.73-.11c0,.93-.35,2.24-1.24,2.09-6.94-1.22-12,4-18.26,5.12-8.29,1.55-16.13-2.49-19.73-13-1.6-4.68,4.86-13.53,11.27-15.92a24.63,24.63,0,0,1,13-1.32c.58,4.25-3,7.16-3.16,11.09C700.13,126.16,700.32,128.3,702.75,130.08Zm-2,9.94c-10.41-6-12.45-13.5-6.79-23.13-6.94,3-9.87,8.33-8.42,14.53C686.8,136.65,692.41,140.16,700.79,140Z"/><path class="cls-7" d="M732.81,186.71c-.55-7.92.86-15.93-1.18-23.77.15-1.83,1.82-3.36,1.08-5.37l1.38-4.3c1.94.18,3.88.39,5.82.51,1,.06,2.47,1.58,2.83-.71.25-1.67.15-3.28-2.09-3.52a21.22,21.22,0,0,0-4.74-.39c-2.95.34-3.27-1.22-2.95-3.48l1.1-.34,8.64.2c2.34,1.13,3,3,2.91,5.54-.28,10.32-.37,20.65-.54,31,0,1.94.27,4.07-2.4,4.65Z"/><path class="cls-5" d="M734.09,153.27l-1.38,4.3q-29.46-1.15-58.92-2.35c-3.2-.14-6.37-.75-9.56-1-2.28-.18-2.44-1.68-2.44-3.39a124.52,124.52,0,0,1,.5-13.48c.51,3.11.66,6.34,1.65,9.29.68,2,1.55,6.06,5.18,2.15a4.29,4.29,0,0,1,4.56-.85c14.35,4.43,29.15,3.92,43.88,4.07C723.11,152.07,728.63,152.12,734.09,153.27Z"/><path class="cls-3" d="M734.06,145.34l-1.1.34a6.78,6.78,0,0,1-3.15-6.14c.29-10.36.25-20.73.23-31.1,0-2.53.68-4.55,2.78-6l1.33.1-.06,39.72Z"/><path class="cls-5" d="M784.59,100.43c-.7,5.88,1.66,12.21-2.55,17.58-2.55-3.13-5.35-.1-8-.33.3-4.19.74-8.38.87-12.59.19-6,.62-6.41,6.59-5.22C782.52,100.08,783.55,100.24,784.59,100.43Z"/><path class="cls-4" d="M490.41,131.34c-4.73,3.58-1,8.78-3,13.93-1.52-7.21-.85-14-3.43-20.21-.68-1.63-1-3.12-2.42-4.44-2.45-2.22-3.12-12.06-1.4-15.21.5,1,.71,2.4,2.31,2.38.12,1.64.23,3.27.35,4.9-.2,2.46,1.21,3,3.25,2.71l0,0c3.23,1.45-.2,5.28,1.84,6.38C492.46,124.24,491.05,127.78,490.41,131.34Z"/><path class="cls-7" d="M719.8,135.67l-5.73.11c3-5.44,4.45-11,.25-17.77,3.9,2.11,8.82-1.83,9.86,4.44C725.53,130.48,724.35,134.25,719.8,135.67Z"/><path class="cls-3" d="M490.41,131.34c.64-3.56,2-7.1-2.55-9.58-2-1.1,1.39-4.93-1.84-6.38.83-1,1.84-.28,2.78-.3,2.46.47,4.87,1.64,6.55-1.79.76-1.55,1.43.59,2.15,1,.24,1.61-.32,3.37.92,4.79l1.36,2,1.14,1,2.34,2.13c-.6.3-1.28,1-1.78.86-4.51-1-7.72-1-7.19,5.38C494.56,133.82,491.83,131.38,490.41,131.34Z"/><path class="cls-7" d="M749.71,127.2a29.44,29.44,0,0,0-3.76,0c-3.51.45-4.56-.89-4.57-4.47s1.12-4.8,4.6-4.45a33.14,33.14,0,0,0,7,0c3.92-.42,5.33.93,5,5-.23,2.93-.82,4.36-4,4a34.09,34.09,0,0,0-4.29,0Z"/><path class="cls-10" d="M574.43,55l1.18.19c1,.4,2,.84,3,1.17s1.78.84,1.72,1.8c-.07,1.13-1.18,1.23-2,1.13-16.6-1.72-33.28-.43-49.89-1.52A3.27,3.27,0,0,1,526,56.22c14.12,0,28.25,0,42.37,0C570.42,56.15,572.75,57.08,574.43,55Z"/><path class="cls-10" d="M630.3,59.46c.09-.37.18-.73.28-1.1,4.3-1.35,8.6-1,13.06-.6,7.09.7,14.29,1.77,21.34-.54,6,0,11.88.35,17.31,3.24H637.13C634.8,60.46,632.47,60.49,630.3,59.46Z"/><path class="cls-3" d="M482.46,107.79c-1.6,0-1.81-1.33-2.31-2.38,0-.86,0-1.71,0-2.57.28-.6,1-1.47.78-1.78-2.86-4.55.87-3.93,3.31-4.32.79.24,2,.92,2.3.64,1.74-1.51.64-9.16-1.4-10.69-1.18-.76-1.17-2-1.28-3.17,1.26-1.07,3.37-1.27,3.51-3.46,1.62,3,.53,6.29.6,9.43s.8,5.93,3.66,7.75a31.08,31.08,0,0,1-.22,3.21c-.35,2.13,1.17,5.55-1.83,6-2.72.39-5.28-1.63-6.27-4.84C481.2,103.37,483.08,105.78,482.46,107.79Z"/><path class="cls-3" d="M503.26,68.7a2.08,2.08,0,0,0-1.59-1.84C496,64.8,495.48,63,499,58.17l7.74-1.53c-.16.72-.33,1.44-.49,2.15l-.12,0c-1.42,3.41.43,5.44,3,7.15-2.58,5.58-.35,11.37-.74,17.05l-1.82.07c-.46-4.06-1.77-8-1.37-12.18C505.31,69.56,504.31,69.08,503.26,68.7Z"/><path class="cls-5" d="M761.46,129.45c-.2,2.4-2.26,3.75-1.41,5.9.61,1.54-.66,1.58-1.76,1.75-3.33.53-6.51-1-10-.41-2,.33-1.33-2.43-1.44-3.89-.13-1.68.07-3.33,2.36-3.34C753.25,129.43,757.24,129.45,761.46,129.45Z"/><path class="cls-5" d="M734.15,102.53l-1.33-.1V62.18c2.77,1.31,2.25,3.14,2.26,4.77,0,9,.18,17.91-.12,26.85-.17,4.93-.21,9.1,6.56,8.73Z"/><path class="cls-5" d="M509.11,66c-2.59-1.71-4.44-3.74-3-7.14l.13,0c.16-.71.33-1.43.49-2.15,1.84-1,3.41-.37,5,.75,1.82,1.31,2-.27,2.42-1.46l4.12.35c.21,2.33.58,4.69-1.6,6.41-2.77-.43-3.74,2.46-5.88,3.19Zm3.09-3.42c-.67-.92-1-1.29-1.22-1.67-.36.28-.92.5-1,.85-.2.66-.1,1.46.88,1.42A4.23,4.23,0,0,0,512.2,62.54Z"/><path class="cls-4" d="M496.8,98.24c3.93,0,7.86,0,11.8,0,2.19,0,4.08.58,4.21,3.08.15,3-2.08,3.62-4.36,3.39-3.36-.32-7.09,1.44-10.27-1.43,2-2.14,5.09.66,6.83-1.82-1.95-3.29-7,1.79-8.22-3.19Z"/><path class="cls-5" d="M586.5,49.54l2.47-.12c3.5,1.89,8.07,2.49,8.95,7.51l-4.59.21c-3.77-1.57-8.53-.47-11.45-4.29v.06C584.46,53.23,586.39,52.63,586.5,49.54Z"/><path class="cls-5" d="M746,115.31c-3.16.49-7,3.79-8.8-1.72-.5-1.52-.93-4,.71-5,2.6-1.63,5.48-.94,8.09.55Z"/><path class="cls-4" d="M734.06,145.34l0-3.09h27.25l.09,1.62c-6,2.27-12.7-.54-18.73,1.67Z"/><path class="cls-10" d="M593.33,57.14l4.59-.21c7.87,1.23,16-1.09,23.77,2.41H596.05C594.53,59.35,593.93,58.25,593.33,57.14Z"/><path class="cls-4" d="M687.68,168.47c.19-1,.13-3,.87-2.79,4.65,1.16,9.42.15,14,1,.8.16,2,.52,1.71,1.59-.61,1.86-2.45.67-3.68,1.11-2.91.17-5.92-.49-8.67,1-1.16-1.49-2.88-.8-4.34-1.1A8.5,8.5,0,0,0,687.68,168.47Z"/><path class="cls-6" d="M709.59,82.52c1.24-1.43-.1-3.43,1.91-4.67,1.81,2.71.88,5.65.67,8.38-.12,1.53-1.47,1.29-2.34.44-1.13-1.11-2.09-2.39-3.25-3.74-1.72.88.33,3.64-2,4.12-1.36-.53-.95-1.8-.85-2.71.23-2.16-1.16-5.36,1.18-6.18C706.93,77.43,707.61,80.92,709.59,82.52Z"/><path class="cls-4" d="M774,117.68c2.66.23,5.46-2.8,8,.33a1.88,1.88,0,0,1-.12.18h-.79l.85.1c1.11,1.83,1.94,3.56-1.27,4l-5.68.93C773.26,121.66,774.1,119.59,774,117.68Z"/><path class="cls-7" d="M702.75,130.08c-2.43-1.78-2.62-3.92-1-6.35,3.06-1.59,5.48-.64,5.89,2.61C708,129.43,705.7,130.55,702.75,130.08Z"/><path class="cls-4" d="M497.5,114.31c-.72-.43-1.39-2.57-2.15-1-1.68,3.43-4.09,2.26-6.55,1.79,3-3.48,7.15-5.45,10.89-7.94,1-.67,1.48.34,1.51,1.33-.47.82-.93,1.65-1.4,2.48C498.48,111.69,498,113,497.5,114.31Z"/><path class="cls-5" d="M692,170.44c2.75-1.51,5.76-.85,8.67-1,1.43,2.75,1,4.38-2.5,4.23-1.76-.07-3.55.16-5.28-.07C690.47,173.26,690.2,172.07,692,170.44Z"/><path class="cls-7" d="M746,115.31v-6.18c2.14.61,5.62-2.37,6.23,2.34C753,117.36,748.83,115.19,746,115.31Z"/><path class="cls-4" d="M510.73,65.88c2.14-.73,3.11-3.62,5.88-3.19-5.68,6.2-4,14.18-5.88,21.48Z"/><path class="cls-6" d="M697.69,86.32c-3.22,1.57-5.48,1.29-7.25-.77a5,5,0,0,1-.38-6c1.54-2.59,4.1-2.24,7.26-1.65-2.25,1.74-6,1-5.7,4.74S695.21,84.53,697.69,86.32Z"/><path class="cls-5" d="M496.79,98.25c-1.17-1.36-1.44-3,.69-3.08,7.86-.18,15.74-.8,23.58.36.5.07.88,1,2.36,2.68-8.27-3.45-15.51-1.65-22.64-2.15-1.63-.11-3.84-.69-4,2.18Z"/><path class="cls-5" d="M687.68,168.47a8.5,8.5,0,0,1-.07.87c.64,1.21,3.62,1.79,1.6,3.61-1.2,1.08-3.24.17-3.42-1.84-.31-3.45-4.14-.23-4.86-3.43C683.25,165.3,685.49,165.35,687.68,168.47Z"/><path class="cls-6" d="M681.8,77.72c-1,2-3.31.24-3.62,2.35,4.06.56-4.45,6.41,3.43,5.57-2.73,1.07-4.74,1.63-5.76-.38a7.71,7.71,0,0,1,0-6.7C677,76.49,679.61,77.93,681.8,77.72Z"/><path class="cls-7" d="M508.16,141.28c-1,2.61-2,5.24-3.08,7.81a1.4,1.4,0,0,1-2.18.64c-.78-.5-.52-1.19-.21-1.83,1.13-2.36,2.28-4.72,3.43-7.08Z"/><path class="cls-6" d="M688.48,86.27c-5.93,0-6.62-1.6-4.13-8.67C687,80,683.15,85.28,688.48,86.27Z"/><path class="cls-3" d="M508.16,141.28l-2-.46c1.48-3.19,1.26-7.67,7.1-8.77C510.2,135.11,509.87,138.53,508.16,141.28Z"/><path class="cls-7" d="M499.8,111c.47-.83.93-1.66,1.4-2.48,3.34-.21,6.78-.87,9.37,2.17l-1,.72c-3-1.4-6-1.76-8.79.51Z"/><path class="cls-6" d="M700.92,78.06a15.18,15.18,0,0,1-.32,10.32C699.16,83.93,699.21,81,700.92,78.06Z"/><path class="cls-7" d="M503.26,124.23l-2.34-2.13.6-.65c2.64,1.77,5.5.22,8.24.52l0,0C508.05,124,505.72,124.32,503.26,124.23Z"/><path class="cls-10" d="M518.21,56.28l-4.12-.35a8,8,0,0,1,8,.29C520.64,58.14,519.45,56.19,518.21,56.28Z"/><path class="cls-7" d="M511.82,113.35c1.5,2.76,1.51,5.33-.94,7.6l0,0c-.17-2.62,2-4.91,1.06-7.64Z"/><path class="cls-5" d="M711.18,115.58c-.72.34-1.17.72-1.54.66s-.66-.57-1-.88c.39-.24.78-.67,1.17-.67S710.56,115.14,711.18,115.58Z"/><path class="cls-3" d="M486.06,115.4c-2,.25-3.45-.25-3.25-2.71C484.15,113.29,486.73,112.38,486.06,115.4Z"/><path class="cls-5" d="M604.48,54.09c-.9,1.35-2.34.71-4.26,1.9,1.61-2.38,3.08-1.62,4.27-1.9Z"/><path class="cls-4" d="M506.55,83.08l1.82-.07c.14.83.31,1.83-.86,1.88S506.56,83.86,506.55,83.08Z"/><path class="cls-7" d="M510.57,110.64l.78,1.08a7.57,7.57,0,0,0-.66.61l-1.16-1Z"/><path class="cls-7" d="M511.35,111.72c.16.54.31,1.08.47,1.63l.08-.09c-.86.28-1-.36-1.21-.93A7.57,7.57,0,0,1,511.35,111.72Z"/><polygon class="cls-4" points="502.43 106.26 502.76 106.17 502.74 106.43 502.43 106.26"/><path class="cls-7" d="M510.88,121l-1.09,1,0,0c-.34-1.06.06-1.37,1.08-1.07Z"/><path class="cls-6" d="M487.36,80.06c-.14,2.19-2.25,2.39-3.51,3.46.71-9.25-1.67-18.64,1.32-27.82.22-.7-.85-1.82-1.32-2.74,2.53.09,2.1-1.74,2.13-3.27,2.2,4.05.82,8.41,1,12.62C487.33,68.22,487.26,74.14,487.36,80.06Z"/><path class="cls-3" d="M485.67,49.92c-3.26.11-3.8-1-1.58-3.43C486.23,46.89,486,48.37,485.67,49.92Z"/><path class="cls-10" d="M489.31,38.82l2.4.36c-.15.22-.25.58-.45.64a1.6,1.6,0,0,1-2.09-.84Z"/><path class="cls-10" d="M683,56.38c-2.16,1.14-4.28,1.86-6.14-.52l5.19,0Z"/><path class="cls-7" d="M682.2,43.18l.3-.44c-.07.18-.15.35-.22.52Z"/><path class="cls-6" d="M671.44,43.35c.11,3-1.28,5.87-.06,8.91A1.88,1.88,0,0,1,669.74,55c-1.75.13-2.63-.83-2.63-2.56,0-3,0-6,0-9.07C668.58,46.09,670,42.69,671.44,43.35Z"/><path class="cls-5" d="M485.78,155.38v19h-.53V155.55Z"/><path class="cls-3" d="M476.11,57.11a6.66,6.66,0,0,1,.31-.85c1.65,1.42,1,3.34,1,5q0,15.54-.09,31.09c0,1.65.76,3.69-1.44,4.73a37.84,37.84,0,0,0-.33-11.29l-.33-2.14c1.32-1.36.75-3,.82-4.62,0-3.78-.05-7.56-.08-11.33,0-.53,0-1.06,0-1.58Q476,61.63,476.11,57.11Z"/><path class="cls-6" d="M485.13,86.69c2,1.53,3.14,9.18,1.4,10.69-.34.28-1.51-.4-2.3-.64-.13-.59-.26-1.18-.4-1.77C485.87,92.46,484.14,89.36,485.13,86.69Z"/><path class="cls-4" d="M482.07,55.84c.11,0,.27,0,.32,0a1.24,1.24,0,0,1,.09.4l-.55-.06Z"/><path class="cls-6" d="M476,79.07c-.07,1.57.5,3.26-.82,4.62C475.51,82.15,474.69,80.42,476,79.07Z"/><path class="cls-6" d="M476,66.16c0,.52,0,1,0,1.58C475.25,67.22,475.24,66.69,476,66.16Z"/><path class="cls-6" d="M586.5,49.54c-.11,3.09-2,3.69-4.63,3.37l.15-3.19,0,.05Z"/><polygon class="cls-6" points="577.27 51.44 577.01 51.54 577.06 51.25 577.27 51.44"/><path class="cls-5" d="M582,49.72l-.52-.54c.12,0,.29,0,.34.12a1.71,1.71,0,0,1,.13.47Z"/><path class="cls-5" d="M782,118.29l-.85-.1h.79Z"/><path class="cls-3" d="M700.79,140c-8.38.14-14-3.37-15.21-8.6-1.45-6.2,1.48-11.55,8.42-14.53C688.34,126.52,690.38,134,700.79,140Z"/><path class="cls-7" d="M497.5,114.31c.5-1.3,1-2.62,2.3-3.36l.94.92c-1.38,2-1.53,4.25-1.47,6.56l-.86.67C497.18,117.68,497.74,115.92,497.5,114.31Z"/><path class="cls-7" d="M499.78,121.07l-1.36-2,.85-.67c.41.66.82,1.32,1.24,2Z"/><path class="cls-7" d="M500.92,122.1l-1.14-1,.72-.67,1,1Z"/><path class="cls-6" d="M506.21,58.79l-.13,0Z"/><path class="cls-4" d="M512.2,62.54a4.23,4.23,0,0,1-1.36.6c-1,0-1.08-.76-.88-1.42.1-.35.66-.57,1-.85C511.25,61.25,511.53,61.62,512.2,62.54Z"/><path class="cls-4" d="M501.52,121.45l-1-1-1.23-2c-.06-2.31.09-4.57,1.47-6.56,2.81-2.27,5.77-1.91,8.79-.51l1.16,1c.2.57.35,1.21,1.21.93,1,2.73-1.23,5-1.06,7.64-1-.3-1.42,0-1.08,1.07C507,121.67,504.16,123.22,501.52,121.45Z"/><path class="cls-3" d="M491.33,196.27c1.68-2.06,4-1.08,6-1.08,16.69,0,33.37.07,50.06.13-1.25,1.49-3,1-4.52,1Q517.1,196.34,491.33,196.27Z"/><path class="cls-3" d="M488,187.69a2.06,2.06,0,0,1-.89-2.19C488.6,185.75,488.06,186.83,488,187.69Z"/><rect class="cls-11" x="710.46" y="202.19" width="38.24" height="362.03"/><rect class="cls-11" x="221.81" y="202.3" width="38.24" height="362.03"/><rect class="cls-12" x="115.12" y="188.83" width="752.72" height="27.13"/><rect class="cls-13" x="138.15" y="83.91" width="214.13" height="18.14" rx="5.01"/><rect class="cls-14" x="123.44" y="102.05" width="214.13" height="18.14" rx="5.01"/><rect class="cls-15" x="128.35" y="120.19" width="214.13" height="18.14" rx="5.01"/><rect class="cls-16" x="123.44" y="138.33" width="214.13" height="18.14" rx="5.01"/><rect class="cls-17" x="134.89" y="156.47" width="214.13" height="18.14" rx="5.01"/><rect class="cls-18" x="123.44" y="173.4" width="214.13" height="18.14" rx="5.01"/><ellipse class="cls-19" cx="235.6" cy="188.83" rx="100.4" ry="1.81"/><ellipse class="cls-19" cx="241.03" cy="172.55" rx="100.4" ry="1.81"/><ellipse class="cls-19" cx="230.17" cy="154.46" rx="100.4" ry="1.81"/><ellipse class="cls-19" cx="235.6" cy="136.37" rx="100.4" ry="1.81"/><ellipse class="cls-19" cx="231.98" cy="118.28" rx="100.4" ry="1.81"/><ellipse class="cls-19" cx="244.65" cy="100.19" rx="100.4" ry="1.81"/></svg>