<svg id="Camada_1" data-name="Camada 1" xmlns="http://www.w3.org/2000/svg" viewBox="0 0 100 100"><defs><style>.cls-1{fill:#0272c5;}.cls-2{fill:#0573c6;}</style></defs><path class="cls-1" d="M3,84.23V16.38a20.72,20.72,0,0,0,2.23-.17Q28.87,12,52.48,7.73c1.71-.31,2.29-.11,2.28,1.88-.08,21.5,0,43,0,64.51,0,5.75-.05,11.51,0,17.26,0,1.52-.4,1.81-1.83,1.54-4.84-.9-9.7-1.68-14.55-2.52Zm13-33.84a16.77,16.77,0,0,0,4,11.55c4.71,5.33,11.54,5,15.81-.66,4.59-6.11,4.41-16.11-.39-22-4.55-5.6-11.72-5.42-16.06.37A17.52,17.52,0,0,0,16.06,50.39Z"/><path class="cls-1" d="M95.58,74a4.36,4.36,0,0,1-4.09,2.1C81.42,76,71.35,76,61.28,76c-.93,0-1.87.25-1.85-1.34.07-8.21,0-16.43,0-24.65,0-.11.1-.22.26-.57l4.53,3.46c2.72,2.08,3,2.06,5.65,0q12.15-9.65,24.3-19.26c.41-.32.74-.82,1.37-.81Z"/><path class="cls-2" d="M59.43,26.41c0-1.21.28-1.67,1.58-1.66q15.39.08,30.8,0a4.54,4.54,0,0,1,3.77,1.91v.82L71.16,46.8C69.82,47.86,68.23,49.62,67,49a68.18,68.18,0,0,1-7-5c0-4-.51-13.21-.57-17.59"/><path class="cls-1" d="M32.9,50.59a12.34,12.34,0,0,1-2,7.17c-2.12,2.88-5.34,2.94-7.58.15-3-3.7-2.86-11.41.21-15,2.29-2.65,5.37-2.55,7.43.28C32.45,45.36,32.82,47.85,32.9,50.59Z"/></svg>